<svg xmlns="http://www.w3.org/2000/svg" width="20" height="25" viewBox="0 0 20 25">
    <g fill="none" fill-rule="nonzero">
        <path fill="#0D6FBA" d="M17.247 12.454c-.59-.025-1.244.164-1.837.578 1.162-.241 2.145.45 2.145 1.246 0 1.795-2.668 3.492-2.668 3.492s4.13-.459 4.13-3.407c0-1.218-.792-1.865-1.77-1.91zm-10.21.004s-5.155-.068-5.155 1.35c0 1.482 6.75 1.586 11.57.673 0 0 1.288-.857 1.63-1.176-3.16.627-10.369.71-10.369.168 0-.5 2.324-1.015 2.324-1.015zM5.79 15.216c-.79 0-1.97.594-1.97 1.167 0 1.15 5.955 2.039 10.364.356l-1.526-.91c-2.988.931-8.497.633-6.868-.613zm.734 2.575c-1.084 0-1.786.65-1.786 1.13 0 1.478 6.472 1.627 9.036.124l-1.63-1.008c-1.915.787-6.726.893-5.62-.246zm-3.61 1.339C1.148 19.095 0 19.867 0 20.507c-.002 3.405 18.092 3.24 18.092-.24 0-.576-.7-.851-.953-.983 1.478 3.328-14.795 3.07-14.795 1.107 0-.447 1.193-.886 2.303-.675l-.94-.52a6.103 6.103 0 0 0-.792-.066zM20 21.42c-2.751 2.534-9.722 3.459-16.733 1.894C10.276 26.1 19.964 24.533 20 21.42z"/>
        <path fill="#EC0000" d="M11.622 0c1.401 3.151-5.025 5.097-5.62 7.724-.549 2.41 3.814 5.214 3.816 5.214-.663-.999-1.142-1.823-1.806-3.376C6.887 6.935 14.853 4.559 11.622 0zm4.26 4.366s-5.626.346-5.913 3.848c-.127 1.559 1.478 2.39 1.526 3.526.036.925-.96 1.697-.96 1.697s1.808-.331 2.375-1.745c.626-1.57-1.216-2.64-1.031-3.896.18-1.202 4.003-3.43 4.003-3.43z"/>
    </g>
</svg>
