<svg xmlns="http://www.w3.org/2000/svg" width="20" height="24" viewBox="0 0 20 24">
    <path fill="#A4CB39" fill-rule="nonzero" d="M16.063 8.108H3.937a.497.497 0 0 0-.345.136.458.458 0 0 0-.144.33v9.704c0 .257.219.466.489.466h2.161v3.27c0 .759.645 1.374 1.44 1.374.795 0 1.44-.615 1.44-1.374v-3.27h2.014v3.27c0 .759.645 1.374 1.44 1.374.795 0 1.44-.615 1.44-1.374v-3.27h2.191c.27 0 .489-.208.489-.466V8.574a.458.458 0 0 0-.144-.33.497.497 0 0 0-.345-.136zm-14.684 0C.62 8.106.003 8.694 0 9.423v5.342c.003.729.62 1.317 1.38 1.315.758.002 1.376-.586 1.378-1.315V9.424c-.002-.729-.62-1.317-1.379-1.315v-.001zm17.242 0c-.76-.002-1.377.586-1.38 1.315v5.342c.003.729.62 1.317 1.38 1.315.759.002 1.376-.586 1.379-1.315V9.424c-.003-.729-.62-1.317-1.38-1.315v-.001zM3.946 7.443h12.108c.317 0 .552-.264.487-.545-.4-1.736-1.616-3.2-3.265-4.045l1.035-1.7a.224.224 0 0 0 .022-.183.235.235 0 0 0-.124-.14.276.276 0 0 0-.356.092L12.81 2.634A7.218 7.218 0 0 0 10 2.073a7.218 7.218 0 0 0-2.81.561L6.147.922A.276.276 0 0 0 5.792.83a.235.235 0 0 0-.124.14.224.224 0 0 0 .022.184l1.035 1.699c-1.65.845-2.865 2.307-3.266 4.045-.065.281.171.545.487.545zm9.667-2.531c0 .282-.252.512-.563.512-.31 0-.563-.23-.563-.512 0-.283.252-.512.563-.512.31 0 .563.229.563.512zM6.95 4.4c.31 0 .563.229.563.512 0 .282-.252.512-.563.512-.31 0-.563-.23-.563-.512 0-.283.252-.512.563-.512z"/>
</svg>
