<svg xmlns="http://www.w3.org/2000/svg" width="20" height="25" viewBox="0 0 20 25">
    <path fill="#45A6DB" fill-rule="nonzero" d="M1.032 9.152c-2.068 3.678-.754 9.257 1.534 12.64C3.708 23.482 4.864 25 6.448 25c.03 0 .06 0 .09-.002.744-.03 1.283-.265 1.803-.49.583-.256 1.187-.519 2.133-.519.901 0 1.476.254 2.032.5.547.243 1.112.494 1.945.478 1.785-.034 2.88-1.671 3.846-3.117a13.973 13.973 0 0 0 1.685-3.534l.007-.022a.208.208 0 0 0-.107-.252l-.014-.006c-.314-.132-3.07-1.384-3.098-4.795-.028-2.772 2.067-4.24 2.487-4.506l.019-.013a.21.21 0 0 0 .057-.288c-1.445-2.166-3.66-2.493-4.553-2.531a3.887 3.887 0 0 0-.397-.02c-1.048 0-2.052.405-2.858.73-.556.225-1.036.42-1.368.42-.373 0-.856-.197-1.416-.425-.749-.303-1.598-.649-2.496-.649h-.063c-2.089.032-4.062 1.255-5.15 3.194v-.001zM14.747 0c-1.37.051-3.011.82-3.993 1.869-.833.881-1.649 2.35-1.433 3.832a.21.21 0 0 0 .198.171c.092.007.186.01.28.01 1.339 0 2.782-.675 3.769-1.763C14.606 2.97 15.13 1.497 14.97.177c-.011-.104-.111-.18-.224-.177z"/>
</svg>
