<svg xmlns="http://www.w3.org/2000/svg" width="46" height="51" viewBox="0 0 46 51">
    <g fill="none" fill-rule="evenodd">
        <circle cx="17.48" cy="33.12" r="17.48" fill="#EC2200"/>
        <ellipse cx="37.72" cy="7.82" fill="#EC2200" rx="8.28" ry="7.82"/>
        <path fill="#FFF" fill-rule="nonzero" d="M20.85 32.038c-.04-.565-.199-1.13-.518-1.62l-2.714-4.485c-.2-.34-.359-.716-.439-1.093l-.12.188a3.403 3.403 0 0 0 0 3.58l2.196 3.58a3.403 3.403 0 0 1 0 3.581l-.12.189a3.718 3.718 0 0 0-.44-1.093l-1.995-3.28-1.277-2.11c-.2-.339-.359-.716-.439-1.092l-.12.188c-.678 1.093-.678 2.45 0 3.58l2.196 3.58a3.403 3.403 0 0 1 0 3.58l-.12.19a3.718 3.718 0 0 0-.44-1.094l-2.753-4.484a3.806 3.806 0 0 1-.518-1.96c-2.914.716-4.949 2.261-4.949 4.032 0 2.488 3.91 4.485 8.74 4.485 4.828 0 8.74-1.997 8.74-4.485.04-1.696-1.956-3.24-4.91-3.957z"/>
    </g>
</svg>
