<?xml version="1.0" encoding="UTF-8"?>
<svg width="50px" height="50px" viewBox="0 0 50 50" version="1.1" xmlns="http://www.w3.org/2000/svg" xmlns:xlink="http://www.w3.org/1999/xlink">
    <!-- Generator: Sketch 61.2 (89653) - https://sketch.com -->
    <title>b. icons / 01. banking / BAN001B | account Currency</title>
    <desc>Created with Sketch.</desc>
    <g id="WIREFRAMES" stroke="none" stroke-width="1" fill="none" fill-rule="evenodd">
        <g id="01-Main-Dashboard-Gft" transform="translate(-258.000000, -415.000000)" fill="#3B5998">
            <g id="Card-application" transform="translate(96.000000, 308.000000)">
                <g id="santander-logo" transform="translate(134.000000, 92.000000)">
                    <g id="b.-icons-/-01.-banking-/-BAN001B-|-account-Currency" transform="translate(23.000000, 10.000000)">
                        <path d="M30,5 C43.7854005,5 55,16.2145995 55,30 C55,43.7854005 43.7854005,55 30,55 C16.2145995,55 5,43.7854005 5,30 C5,16.2145995 16.2145995,5 30,5 Z M30,7.5 C17.5939943,7.5 7.5,17.5939942 7.5,30 C7.5,42.4060057 17.5939943,52.5 30,52.5 C42.4060057,52.5 52.5,42.4060057 52.5,30 C52.5,17.5939943 42.4060057,7.5 30,7.5 Z M16.9028091,32.4995995 L16.933136,32.5 L33.75,32.5 C34.440918,32.5 35,33.059082 35,33.75 C35,34.440918 34.440918,35 33.75,35 L33.75,35 L18.567047,35 C20.532837,39.482422 25.0038147,42.5 30,42.5 C34.066162,42.5 37.8930665,40.5114745 40.234375,37.178955 C40.6311035,36.6174318 41.409912,36.47583 41.9763185,36.875 C42.541504,37.272949 42.677002,38.0517578 42.2802735,38.6169433 C39.4702147,42.6135255 34.8791505,45 30,45 C23.6442565,45 18.011322,40.921173 15.906067,35 L15.906067,35 L13.75,35 C13.059082,35 12.5,34.440918 12.5,33.75 C12.5,33.059082 13.059082,32.5 13.75,32.5 L13.75,32.5 L16.8722535,32.5 C16.8925475,32.5016785 16.913147,32.4972535 16.933136,32.5 Z M30,15 C34.790039,15 39.3322755,17.3181152 42.1496583,21.2023925 C42.5549318,21.7614745 42.43042,22.5427245 41.871338,22.947998 C41.312256,23.3544922 40.5297853,23.227539 40.1257325,22.6696777 C37.7770995,19.432373 33.9916993,17.5 30,17.5 C25.0187683,17.5 20.539856,20.5244445 18.5720825,25 L18.5720825,25 L33.75,25 C34.440918,25 35,25.559082 35,26.25 C35,26.940918 34.440918,27.5 33.75,27.5 L33.75,27.5 L13.75,27.5 C13.059082,27.5 12.5,26.940918 12.5,26.25 C12.5,25.559082 13.059082,25 13.75,25 L13.75,25 L15.9022523,25 C18.0070495,19.0846253 23.661499,15 30,15 Z" id="🌈-Color"></path>
                    </g>
                </g>
            </g>
        </g>
    </g>
</svg>