<?xml version="1.0" standalone="no"?>
<!DOCTYPE svg PUBLIC "-//W3C//DTD SVG 1.1//EN" "http://www.w3.org/Graphics/SVG/1.1/DTD/svg11.dtd" >
<svg xmlns="http://www.w3.org/2000/svg">
<metadata>
<json>
<![CDATA[
{
	"fontFamily": "icomoon",
	"majorVersion": 1,
	"minorVersion": 0,
	"description": "Santander Global Icon\nFont generated by IcoMoon.",
	"license": "Grupo Santander",
	"version": "Version 1.0",
	"fontId": "icomoon",
	"psName": "icomoon",
	"subFamily": "Regular",
	"fullName": "icomoon"
}
]]>
</json>
</metadata>
<defs>
<font id="icomoon" horiz-adv-x="1024">
<font-face units-per-em="1024" ascent="960" descent="-64" />
<missing-glyph horiz-adv-x="1024" />
<glyph unicode="&#x20;" horiz-adv-x="512" d="" />
<glyph unicode="&#xe900;" glyph-name="SYS015_EXP" data-tags="SYS015_EXP" d="M896 618.667h-768c-23.564 0-42.667 19.103-42.667 42.667s19.103 42.667 42.667 42.667v0h768c23.564 0 42.667-19.103 42.667-42.667s-19.103-42.667-42.667-42.667v0zM896 405.333h-768c-23.564 0-42.667 19.103-42.667 42.667s19.103 42.667 42.667 42.667v0h768c23.564 0 42.667-19.103 42.667-42.667s-19.103-42.667-42.667-42.667v0zM896 192h-768c-23.564 0-42.667 19.103-42.667 42.667s19.103 42.667 42.667 42.667v0h768c23.564 0 42.667-19.103 42.667-42.667s-19.103-42.667-42.667-42.667v0z" />
<glyph unicode="&#xe901;" glyph-name="SYS016_EXP" data-tags="SYS016_EXP" d="M384 149.333c-0.073 0-0.16-0.001-0.247-0.001-11.721 0-22.338 4.726-30.049 12.377l0.003-0.003c-7.795 7.733-12.621 18.45-12.621 30.293s4.826 22.56 12.618 30.291l0.003 0.003 226.133 225.707-226.133 225.707c-7.753 7.753-12.548 18.463-12.548 30.293 0 23.661 19.181 42.841 42.841 42.841 11.83 0 22.541-4.795 30.293-12.548l256-256c7.795-7.733 12.621-18.45 12.621-30.293s-4.826-22.56-12.618-30.291l-256.003-256.003c-7.709-7.648-18.326-12.374-30.047-12.374-0.087 0-0.173 0-0.26 0.001h0.013z" />
<glyph unicode="&#xe902;" glyph-name="SYS017_EXP" data-tags="SYS017_EXP" d="M640 149.333c-0.073 0-0.16-0.001-0.247-0.001-11.721 0-22.338 4.726-30.049 12.377l-255.997 255.997c-7.795 7.733-12.621 18.45-12.621 30.293s4.826 22.56 12.618 30.291l256.003 256.003c7.753 7.753 18.463 12.548 30.293 12.548 23.661 0 42.841-19.181 42.841-42.841 0-11.83-4.795-22.541-12.548-30.293v0l-226.133-225.707 226.133-225.707c7.795-7.733 12.621-18.45 12.621-30.293s-4.826-22.56-12.618-30.291l-0.003-0.003c-7.709-7.648-18.326-12.374-30.047-12.374-0.087 0-0.173 0-0.26 0.001h0.013z" />
<glyph unicode="&#xe903;" glyph-name="SYS018_EXP" data-tags="SYS018_EXP" d="M512 324.267c-11.868 0.051-22.584 4.939-30.287 12.793l-170.674 170.674c-7.668 7.712-12.407 18.343-12.407 30.080s4.74 22.368 12.409 30.082l-0.002-0.002c7.733 7.795 18.45 12.621 30.293 12.621s22.56-4.826 30.291-12.618l140.376-140.376 140.373 140.373c7.733 7.795 18.45 12.621 30.293 12.621s22.56-4.826 30.291-12.618l0.003-0.003c7.668-7.712 12.407-18.343 12.407-30.080s-4.74-22.368-12.409-30.082l-170.665-170.665c-7.709-7.861-18.426-12.749-30.284-12.8h-0.010z" />
<glyph unicode="&#xe904;" glyph-name="SYS019_EXP" data-tags="SYS019_EXP" d="M682.554 319.876c-11.868 0.051-22.584 4.939-30.287 12.793l-140.38 140.38-140.373-140.373c-7.736-7.789-18.452-12.611-30.293-12.611-23.577 0-42.691 19.113-42.691 42.691 0 11.736 4.735 22.365 12.4 30.082l170.665 170.665c7.733 7.795 18.45 12.621 30.293 12.621s22.56-4.826 30.291-12.618l170.67-170.67c7.796-7.733 12.621-18.45 12.621-30.294 0-23.564-19.103-42.667-42.667-42.667-0.087 0-0.174 0-0.262 0.001h0.013z" />
<glyph unicode="&#xe905;" glyph-name="SYS020_EXP" data-tags="SYS020_EXP" d="M960 427.093h-896c-0.001 0-0.003 0-0.004 0-11.632 0-21.090 9.31-21.329 20.884v0.022c0 11.782 9.551 21.333 21.333 21.333v0h896c11.782 0 21.333-9.551 21.333-21.333v0c-0.239-11.597-9.697-20.907-21.329-20.907-0.002 0-0.003 0-0.005 0v0zM384 106.667c-0.244-0.011-0.53-0.017-0.817-0.017-5.539 0-10.542 2.295-14.111 5.985l-0.005 0.005-321.28 320c-3.217 3.658-5.18 8.488-5.18 13.776 0 0.558 0.022 1.11 0.065 1.657l-0.005-0.072c-0.001 0.073-0.001 0.159-0.001 0.244 0 5.795 2.458 11.017 6.389 14.678l0.012 0.011 321.28 320c3.932 4.506 9.686 7.337 16.1 7.337 11.782 0 21.333-9.551 21.333-21.333 0-6.521-2.926-12.359-7.536-16.272l-0.031-0.025-305.92-304.64 305.92-305.067c3.898-3.867 6.31-9.225 6.31-15.147s-2.413-11.28-6.309-15.145l-0.001-0.001c-3.581-3.747-8.618-6.077-14.199-6.077-0.709 0-1.41 0.038-2.1 0.111l0.086-0.007z" />
<glyph unicode="&#xe906;" glyph-name="SYS021_EXP" data-tags="SYS021_EXP" d="M960 427.093h-896c-0.001 0-0.003 0-0.004 0-11.632 0-21.090 9.31-21.329 20.884v0.022c0 11.782 9.551 21.333 21.333 21.333v0h896c11.782 0 21.333-9.551 21.333-21.333v0c-0.239-11.597-9.697-20.907-21.329-20.907-0.002 0-0.003 0-0.005 0v0zM640 106.667c-0.244-0.011-0.53-0.017-0.817-0.017-5.539 0-10.542 2.295-14.111 5.985l-0.005 0.005c-3.898 3.867-6.31 9.225-6.31 15.147s2.413 11.28 6.309 15.145l0.001 0.001 304.64 305.067-305.92 305.067c-4.641 3.939-7.567 9.776-7.567 16.297 0 11.782 9.551 21.333 21.333 21.333 6.415 0 12.168-2.831 16.079-7.312l0.022-0.025 321.28-320c3.949-3.673 6.411-8.898 6.411-14.698 0-0.233-0.004-0.465-0.012-0.696l0.001 0.034c0.001-0.090 0.002-0.197 0.002-0.303 0-5.911-2.453-11.248-6.396-15.051l-0.006-0.006-321.28-320c-3.471-3.583-8.286-5.846-13.63-5.973h-0.023z" />
<glyph unicode="&#xe907;" glyph-name="SYS022_EXP" data-tags="SYS022_EXP" d="M256 149.333c-0.073 0-0.16-0.001-0.247-0.001-11.721 0-22.338 4.726-30.049 12.377l0.003-0.003c-7.795 7.733-12.621 18.45-12.621 30.293s4.826 22.56 12.618 30.291l512.003 512.003c7.733 7.795 18.45 12.621 30.293 12.621s22.56-4.826 30.291-12.618l0.003-0.003c7.668-7.712 12.407-18.343 12.407-30.080s-4.74-22.368-12.409-30.082l-511.998-511.998c-7.709-7.861-18.426-12.749-30.284-12.8h-0.010zM768 149.333c-0.073 0-0.16-0.001-0.247-0.001-11.721 0-22.338 4.726-30.049 12.377l-511.997 511.997c-7.753 7.753-12.548 18.463-12.548 30.293 0 23.661 19.181 42.841 42.841 42.841 11.83 0 22.541-4.795 30.293-12.548v0l512-512c7.795-7.733 12.621-18.45 12.621-30.293s-4.826-22.56-12.618-30.291l-0.003-0.003c-7.709-7.648-18.326-12.374-30.047-12.374-0.087 0-0.173 0-0.26 0.001h0.013z" />
<glyph unicode="&#xe908;" glyph-name="SYS023_EXP" data-tags="SYS023_EXP" d="M576 64c-5.856 0.086-11.127 2.518-14.93 6.397l-0.003 0.003c-3.984 3.745-6.465 9.050-6.465 14.933s2.481 11.188 6.454 14.923l0.011 0.010c82.088 85.239 135.12 198.968 142.862 324.945l0.072 1.455c-7.211 127.548-60.379 241.446-143.050 326.521l0.117-0.121c-3.984 3.745-6.465 9.050-6.465 14.933s2.481 11.188 6.454 14.923l0.011 0.010c3.867 3.898 9.225 6.31 15.147 6.31s11.28-2.413 15.145-6.309l0.001-0.001c89.884-92.788 147.684-217.124 155.244-354.844l0.062-1.423c-7.622-139.143-65.423-263.478-155.448-356.413l0.141 0.147c-3.928-3.941-9.357-6.385-15.357-6.4h-0.003zM490.667 149.333c-0.073-0.001-0.159-0.001-0.244-0.001-5.795 0-11.017 2.458-14.678 6.389l-0.011 0.012c-3.984 3.745-6.465 9.050-6.465 14.933s2.481 11.188 6.454 14.923l0.011 0.010c59.921 62.827 97.627 147.303 100.255 240.557l0.011 0.51c-2.639 93.764-40.346 178.24-100.404 241.211l0.137-0.145c-3.822 3.822-6.186 9.102-6.186 14.933 0 11.664 9.455 21.119 21.119 21.119 5.832 0 11.112-2.364 14.933-6.186v0c68.015-70.243 110.683-165.385 113.058-270.474l0.008-0.459c-2.383-105.548-45.052-200.69-113.17-271.041l0.104 0.108c-3.672-3.943-8.893-6.401-14.689-6.401-0.086 0-0.172 0.001-0.257 0.002h0.013zM405.333 234.667c-0.042 0-0.092 0-0.142 0-4.78 0-9.186 1.604-12.708 4.304l0.050-0.037c-5.114 4.020-8.368 10.205-8.368 17.151 0 4.775 1.538 9.19 4.145 12.778l-0.043-0.063c35.32 42.759 57.499 97.524 59.719 157.39l0.014 0.476c-2.099 60.362-24.305 115.162-60.082 158.3l0.349-0.433c-2.564 3.525-4.102 7.941-4.102 12.715 0 6.946 3.254 13.132 8.322 17.116l0.047 0.035c3.521 2.664 7.973 4.267 12.8 4.267 6.955 0 13.133-3.329 17.028-8.48l0.039-0.054c40.644-49.802 66.028-113.468 68.254-182.983l0.012-0.484c-2.171-70.007-27.569-133.691-68.7-184.013l0.433 0.547c-3.974-5.155-10.127-8.463-17.055-8.533h-0.011zM298.667 320c-6.94 0.070-13.093 3.378-17.029 8.483l-0.038 0.051c-2.664 3.521-4.267 7.973-4.267 12.8 0 6.955 3.329 13.133 8.48 17.028l0.054 0.039c20.819 15.733 34.133 40.445 34.133 68.267s-13.314 52.533-33.919 68.111l-0.215 0.156c-5.205 3.933-8.533 10.111-8.533 17.067 0 11.782 9.551 21.333 21.333 21.333 4.827 0 9.279-1.603 12.854-4.306l-0.054 0.039c31.229-23.6 51.2-60.668 51.2-102.4s-19.971-78.8-50.878-102.167l-0.322-0.233c-3.472-2.663-7.877-4.267-12.658-4.267-0.050 0-0.1 0-0.15 0.001h0.008z" />
<glyph unicode="&#xe909;" glyph-name="SYS024_EXP" data-tags="SYS024_EXP" d="M512 64v0c-11.782 0-21.333 9.551-21.333 21.333v0 725.333c0 11.782 9.551 21.333 21.333 21.333v0 0c11.782 0 21.333-9.551 21.333-21.333v0-725.333c0-11.782-9.551-21.333-21.333-21.333v0zM512 682.667c-0.13-0.003-0.283-0.005-0.436-0.005-3.941 0-7.622 1.113-10.745 3.042l0.088-0.051-106.667 64c-6.243 3.822-10.346 10.605-10.346 18.347 0 11.841 9.599 21.44 21.44 21.44 4.099 0 7.93-1.151 11.187-3.146l-0.094 0.053 95.573-57.6 95.573 57.6c3.163 1.943 6.994 3.093 11.093 3.093 11.841 0 21.44-9.599 21.44-21.44 0-7.741-4.103-14.524-10.253-18.293l-0.094-0.053-106.667-64c-3.036-1.878-6.716-2.991-10.657-2.991-0.153 0-0.306 0.002-0.459 0.005h0.023zM405.333 106.667c-7.684 0.125-14.405 4.138-18.294 10.153l-0.053 0.087c-1.871 3.146-2.977 6.937-2.977 10.986 0 7.745 4.047 14.545 10.141 18.401l0.089 0.053 106.667 64c3.192 1.829 7.017 2.908 11.093 2.908s7.901-1.079 11.204-2.966l-0.111 0.058 106.667-64c6.243-3.822 10.346-10.605 10.346-18.347 0-11.841-9.599-21.44-21.44-21.44-4.099 0-7.93 1.151-11.187 3.146l0.094-0.053-95.573 57.6-95.573-57.6c-3.036-1.878-6.716-2.991-10.657-2.991-0.153 0-0.306 0.002-0.459 0.005h0.023zM826.027 245.333c-0.041 0-0.089 0-0.137 0-3.898 0-7.536 1.112-10.614 3.036l0.084-0.049-628.053 362.667c-5.351 3.924-8.786 10.187-8.786 17.253 0 11.782 9.551 21.333 21.333 21.333 3.184 0 6.205-0.697 8.918-1.948l-0.132 0.055 628.053-362.667c6.442-3.857 10.688-10.799 10.688-18.733 0-3.765-0.956-7.306-2.639-10.395l0.057 0.114c-3.927-6.386-10.851-10.597-18.763-10.667h-0.010zM181.76 494.080c-8.023 0.074-15.002 4.478-18.717 10.986l-0.056 0.107c-1.563 2.893-2.481 6.332-2.481 9.986 0 7.648 4.024 14.356 10.071 18.122l0.090 0.052 98.133 55.040v111.787c-0.003 0.128-0.004 0.279-0.004 0.431 0 11.634 9.312 21.092 20.889 21.329h0.022c0.256 0.011 0.556 0.018 0.858 0.018 11.546 0 20.907-9.36 20.907-20.907 0-0.156-0.002-0.312-0.005-0.467v0.023l0.427-124.587c0.001-0.069 0.001-0.151 0.001-0.233 0-8.099-4.424-15.164-10.988-18.911l-0.107-0.056-108.8-59.733c-2.95-1.692-6.448-2.774-10.178-2.984l-0.062-0.003zM736 174.080c-11.782 0-21.333 9.551-21.333 21.333v0l-2.133 124.587c-0.001 0.069-0.001 0.151-0.001 0.233 0 8.099 4.424 15.164 10.988 18.911l0.107 0.056 108.8 60.16c3.575 2.801 8.137 4.491 13.094 4.491 11.782 0 21.333-9.551 21.333-21.333 0-8.97-5.536-16.647-13.377-19.8l-0.143-0.051-98.133-55.040 2.133-111.787c-0.211-11.637-9.35-21.074-20.846-21.757l-0.061-0.003zM197.973 245.333c-11.688 0.123-21.116 9.627-21.116 21.332 0 7.766 4.15 14.563 10.353 18.294l0.096 0.054 628.48 362.667c2.581 1.196 5.602 1.893 8.786 1.893 11.782 0 21.333-9.551 21.333-21.333 0-7.066-3.435-13.329-8.726-17.211l-0.060-0.042-628.48-362.667c-2.914-1.876-6.472-2.99-10.29-2.99-0.132 0-0.264 0.001-0.396 0.004h0.020zM842.667 494.080c-3.794 0.141-7.306 1.233-10.34 3.042l0.1-0.055-107.093 60.16c-7.368 3.268-12.482 10.387-12.799 18.734l-0.001 0.039 2.133 124.16c0.868 11.563 10.152 20.699 21.701 21.331l0.059 0.003c11.556-0.686 20.696-10.123 20.906-21.739v-0.021l-2.133-111.36 98.133-55.040c6.626-3.814 11.015-10.855 11.015-18.922 0-3.689-0.918-7.164-2.539-10.209l0.057 0.117c-4.099-6.205-11.043-10.242-18.929-10.242-0.095 0-0.19 0.001-0.285 0.002h0.014zM288.427 174.080v0c-11.599 0.237-20.911 9.696-20.911 21.329 0 0.151 0.002 0.303 0.005 0.453v-0.023 111.787l-96.853 55.040c-6.699 3.686-11.163 10.698-11.163 18.753 0 3.763 0.975 7.299 2.685 10.369l-0.055-0.108c3.857 6.442 10.799 10.688 18.733 10.688 3.765 0 7.306-0.956 10.395-2.639l-0.114 0.057 108.8-60.16c6.675-3.905 11.088-11.037 11.093-19.199v-124.161c0.003-0.132 0.005-0.288 0.005-0.444 0-12.018-9.742-21.76-21.76-21.76-0.302 0-0.602 0.006-0.901 0.018l0.043-0.001z" />
<glyph unicode="&#xe90a;" glyph-name="SYS025_EXP" data-tags="SYS025_EXP" d="M832 874.667h-640c-58.91 0-106.667-47.756-106.667-106.667v0-640c0-58.91 47.756-106.667 106.667-106.667v0h640c58.91 0 106.667 47.756 106.667 106.667v0 640c0 58.91-47.756 106.667-106.667 106.667v0zM896 768v-640c0-0.077 0.001-0.169 0.001-0.261 0-9.67-2.204-18.826-6.136-26.992l0.162 0.373-341.333 341.333 343.040 346.88c2.542-6.308 4.093-13.615 4.265-21.262l0.001-0.071zM832 832c11.972-0.022 23.162-3.35 32.711-9.12l-0.285 0.16-348.16-348.16-351.147 351.147c7.793 3.77 16.949 5.974 26.619 5.974 0.092 0 0.183 0 0.275-0.001h-0.014zM136.96 95.573c-5.553 9.281-8.871 20.457-8.96 32.401v640.025c0.033 10.285 2.553 19.973 6.99 28.506l-0.164-0.346 351.147-351.573zM192 64c-7.718 0.174-15.025 1.725-21.753 4.415l0.42-0.148 346.453 346.453 343.893-343.893c-8.187-4.273-17.875-6.794-28.149-6.827h-0.011z" />
<glyph unicode="&#xe90b;" glyph-name="SYS001_EXP" data-tags="SYS001_EXP" d="M512 874.667c-235.271 0-426.667-191.396-426.667-426.667 0-109.786 42.031-209.69 110.396-285.378 1.318-2.036 2.87-3.781 4.781-5.258 77.93-83.469 188.555-136.031 311.49-136.031s233.56 52.563 311.49 136.031c1.911 1.477 3.464 3.221 4.781 5.258 68.365 75.688 110.396 175.591 110.396 285.378 0 235.271-191.396 426.667-426.667 426.667zM512 64c-109.031 0-207.367 45.901-277.333 119.13v11.245c0 37.521 59.813 70.437 128 70.437 14.458 0 35.021-3.521 51.563-6.333l11.917-2c13.437-2.167 26.75-5 39.917-8.479l6.688-1.792c11.583-3.187 24.729-6.792 39.25-6.792 13.833 0 31.125 4.521 47.854 8.875l14.292 3.646c34.854 8.292 65.813 12.875 87.188 12.875 72.979 0 128-30.292 128-70.437v-11.245c-69.966-73.229-168.302-119.13-277.333-119.13zM825.060 226.414c-19.456 48.299-81.969 81.065-163.727 81.065-31.542 0-70.187-7.625-97.104-14.042l-15.167-3.854c-13.458-3.521-28.708-7.5-37.062-7.5-8.771 0-18.104 2.563-27.979 5.271l-7.104 1.917c-14.479 3.833-29.167 6.958-43.979 9.333l-11.542 1.938c-19.063 3.25-40.646 6.937-58.729 6.937-77.604 0-142.539-34.711-163.182-81.792-44.823 62.82-71.484 139.437-71.484 222.312 0 211.729 172.271 384 384 384s384-172.271 384-384c0-82.549-26.437-158.904-70.94-221.586zM511.896 763.729c-47.396 0-95.187-21.583-124.729-56.312-24.583-28.917-34.875-64.854-29.063-100.396l16.667-133.312c10.729-70.396 65.833-117.688 137.125-117.688 71.417 0 126.604 47.292 137.417 118.25l16.5 131.979c5.896 36.271-4.396 72.167-28.979 101.062-29.604 34.792-77.479 56.417-124.938 56.417zM623.583 612.312l-16.521-132.187c-7.542-49.458-44.896-81.437-95.167-81.437-50.146 0-87.417 31.979-94.875 80.875l-16.688 133.542c-4.958 30.458 7.771 53.062 19.354 66.667 21.646 25.479 56.979 41.292 92.208 41.292 35.312 0 70.729-15.854 92.437-41.396 11.563-13.583 24.312-36.167 19.25-67.354z" />
<glyph unicode="&#xe90c;" glyph-name="SYS002_EXP" data-tags="SYS002_EXP" d="M512 874.667c-235.271 0-426.667-191.396-426.667-426.667s191.396-426.667 426.667-426.667 426.667 191.396 426.667 426.667-191.396 426.667-426.667 426.667zM512 64c-211.729 0-384 172.271-384 384s172.271 384 384 384 384-172.271 384-384-172.271-384-384-384zM512 277.333c-11.792 0-21.333-9.542-21.333-21.333v-42.667c0-11.792 9.542-21.333 21.333-21.333s21.333 9.542 21.333 21.333v42.667c0 11.792-9.542 21.333-21.333 21.333zM512 704c-11.792 0-21.333-9.542-21.333-21.333v-341.333c0-11.792 9.542-21.333 21.333-21.333s21.333 9.542 21.333 21.333v341.333c0 11.792-9.542 21.333-21.333 21.333z" />
<glyph unicode="&#xe90d;" glyph-name="SYS003_EXP" data-tags="SYS003_EXP" d="M512 874.667c-235.271 0-426.667-191.396-426.667-426.667s191.396-426.667 426.667-426.667 426.667 191.396 426.667 426.667-191.396 426.667-426.667 426.667zM512 64c-211.729 0-384 172.271-384 384s172.271 384 384 384 384-172.271 384-384-172.271-384-384-384zM512 277.333c-11.792 0-21.333-9.542-21.333-21.333v-42.667c0-11.792 9.542-21.333 21.333-21.333s21.333 9.542 21.333 21.333v42.667c0 11.792-9.542 21.333-21.333 21.333zM538.896 704.437c-44.208 7.667-88.979-4.104-122.875-32.563-33.917-28.479-53.354-70.187-53.354-114.417 0-11.792 9.542-21.333 21.333-21.333s21.333 9.542 21.333 21.333c0 31.604 13.896 61.396 38.125 81.729 24.563 20.625 55.875 28.833 88.062 23.208 42.792-7.479 77.917-42.625 85.417-85.417 8.125-46.25-12.896-90.604-53.542-113-45.542-25.104-72.729-68.521-72.729-116.146v-10.688c0-11.792 9.542-21.333 21.333-21.333s21.333 9.542 21.333 21.333v10.688c0 31.833 18.938 61.292 50.646 78.771 56 30.854 86.146 94.25 75 157.75-10.583 60.167-59.958 109.542-120.083 120.083z" />
<glyph unicode="&#xe90e;" glyph-name="SYS004_EXP" data-tags="SYS004_EXP" d="M512 874.667c-235.271 0-426.667-191.396-426.667-426.667s191.396-426.667 426.667-426.667 426.667 191.396 426.667 426.667-191.396 426.667-426.667 426.667zM512 64c-211.729 0-384 172.271-384 384s172.271 384 384 384 384-172.271 384-384-172.271-384-384-384zM512 704c-11.792 0-21.333-9.542-21.333-21.333v-42.667c0-11.792 9.542-21.333 21.333-21.333s21.333 9.542 21.333 21.333v42.667c0 11.792-9.542 21.333-21.333 21.333zM512 533.333c-11.792 0-21.333-9.542-21.333-21.333v-298.667c0-11.792 9.542-21.333 21.333-21.333s21.333 9.542 21.333 21.333v298.667c0 11.792-9.542 21.333-21.333 21.333z" />
<glyph unicode="&#xe90f;" glyph-name="SYS005_EXP" data-tags="SYS005_EXP" d="M874.667 618.667h-597.333c-11.792 0-21.333-9.542-21.333-21.333v-426.667c0-11.792 9.542-21.333 21.333-21.333h213.333c11.792 0 21.333 9.542 21.333 21.333s-9.542 21.333-21.333 21.333h-192v384h554.667v-106.667c0-11.792 9.542-21.333 21.333-21.333s21.333 9.542 21.333 21.333v128c0 11.792-9.542 21.333-21.333 21.333zM192 320h-21.333v21.333c0 11.792-9.542 21.333-21.333 21.333s-21.333-9.542-21.333-21.333v-42.667c0-11.792 9.542-21.333 21.333-21.333h42.667c11.792 0 21.333 9.542 21.333 21.333s-9.542 21.333-21.333 21.333zM149.333 448c11.792 0 21.333 9.542 21.333 21.333v85.333c0 11.792-9.542 21.333-21.333 21.333s-21.333-9.542-21.333-21.333v-85.333c0-11.792 9.542-21.333 21.333-21.333zM192 746.667h-42.667c-11.792 0-21.333-9.542-21.333-21.333v-42.667c0-11.792 9.542-21.333 21.333-21.333s21.333 9.542 21.333 21.333v21.333h21.333c11.792 0 21.333 9.542 21.333 21.333s-9.542 21.333-21.333 21.333zM507.062 704h78.771c11.792 0 21.333 9.542 21.333 21.333s-9.542 21.333-21.333 21.333h-78.771c-11.792 0-21.333-9.542-21.333-21.333s9.542-21.333 21.333-21.333zM310.146 704h78.771c11.792 0 21.333 9.542 21.333 21.333s-9.542 21.333-21.333 21.333h-78.771c-11.792 0-21.333-9.542-21.333-21.333s9.542-21.333 21.333-21.333zM704 704h21.333v-21.333c0-11.792 9.542-21.333 21.333-21.333s21.333 9.542 21.333 21.333v42.667c0 11.792-9.542 21.333-21.333 21.333h-42.667c-11.792 0-21.333-9.542-21.333-21.333s9.542-21.333 21.333-21.333zM670.292 362.667h129.521c11.792 0 21.333 9.542 21.333 21.333s-9.542 21.333-21.333 21.333h-181.021c-2.776 0-5.539-0.563-8.146-1.641-5.224-2.161-9.385-6.323-11.547-11.547-1.078-2.607-1.641-5.37-1.641-8.146v-181.021c0-11.792 9.542-21.333 21.333-21.333s21.333 9.542 21.333 21.333v129.521l174.771-174.771c4.167-4.167 9.625-6.25 15.083-6.25s10.917 2.083 15.083 6.25c8.333 8.333 8.333 21.833 0 30.167l-174.771 174.771z" />
<glyph unicode="&#xe910;" glyph-name="SYS006_EXP" data-tags="SYS006_EXP" d="M307.375 738.25c-10.333-1.229-18.208-2.729-23.667-4.542l-211.875-626.625h43.625l57.333 172.792h273.75l57.292-172.792h46.375l-214.625 632.979c-8.5 0-17.917-0.604-28.208-1.812zM186.417 319.896l123.667 371.979 123.708-371.979h-247.375zM781.167 567.271c-56.375 0-106.375-12.125-150.042-36.375-2.417-16.979-3.625-30.021-3.625-39.104 21.792 12.125 44.833 21.5 69.083 28.187 24.25 6.667 50.958 10 80.042 10 39.417 0 68.5-8.625 87.333-25.917 18.75-17.271 28.167-45.625 28.167-85.042v-23.646l-18.167-0.896c-66.708-4.854-119.917-14.417-159.625-28.646-39.708-14.25-68.083-33.062-85.042-56.396-16.958-23.354-25.458-51.375-25.458-84.125 0-26.083 5.583-48.813 16.833-68.208 11.208-19.417 27.417-34.417 48.667-45.021 21.208-10.604 46.042-15.917 74.542-15.917 33.375 0 62.917 7.437 88.708 22.292 25.75 14.833 45.583 33.792 59.542 56.833l2.75-68.208h40.917v313.771c0 50.312-12.75 87.312-38.208 110.958s-64.25 35.458-116.417 35.458zM892.125 201.667c-13.958-20-33.792-36.542-59.542-49.563-25.792-13.042-52.917-19.563-81.417-19.563-32.75 0-58.208 8.792-76.375 26.375-18.208 17.583-27.292 40.625-27.292 69.125 0 24.854 6.5 46.062 19.542 63.667 13.042 17.583 36.375 32.292 70.042 44.104 33.625 11.833 79.875 20.146 138.667 25.021l16.375 0.896v-160.063z" />
<glyph unicode="&#xe911;" glyph-name="SYS007_EXP" data-tags="SYS007_EXP" d="M917.333 490.667h-341.333c-11.792 0-21.333-9.542-21.333-21.333s9.542-21.333 21.333-21.333h341.333c11.792 0 21.333 9.542 21.333 21.333s-9.542 21.333-21.333 21.333zM321.583 738.25c-10.333-1.229-18.208-2.729-23.667-4.542l-211.875-626.625h43.625l57.333 172.792h273.75l57.292-172.792h46.375l-214.625 632.979c-8.5 0-17.917-0.604-28.208-1.812zM200.625 319.896l123.667 371.979 123.708-371.979h-247.375z" />
<glyph unicode="&#xe912;" glyph-name="SYS008_EXP" data-tags="SYS008_EXP" d="M917.333 490.667h-149.333v149.333c0 11.792-9.542 21.333-21.333 21.333s-21.333-9.542-21.333-21.333v-149.333h-149.333c-11.792 0-21.333-9.542-21.333-21.333s9.542-21.333 21.333-21.333h149.333v-149.333c0-11.792 9.542-21.333 21.333-21.333s21.333 9.542 21.333 21.333v149.333h149.333c11.792 0 21.333 9.542 21.333 21.333s-9.542 21.333-21.333 21.333zM321.583 738.25c-10.333-1.229-18.208-2.729-23.667-4.542l-211.875-626.625h43.625l57.333 172.792h273.75l57.292-172.792h46.375l-214.625 632.979c-8.5 0-17.917-0.604-28.208-1.812zM200.625 319.896l123.667 371.979 123.708-371.979h-247.375z" />
<glyph unicode="&#xe913;" glyph-name="SYS009_EXP" data-tags="SYS009_EXP" d="M512 618.667c-94.125 0-170.667-76.563-170.667-170.667s76.542-170.667 170.667-170.667 170.667 76.563 170.667 170.667-76.542 170.667-170.667 170.667zM533.333 573.844c11.266-1.906 21.974-5.216 32.042-9.872v-231.943c-10.068-4.656-20.776-7.966-32.042-9.872v251.688zM384 448c0 63.279 46.255 115.615 106.667 125.844v-251.688c-60.411 10.229-106.667 62.565-106.667 125.844zM608.042 364.281v167.437c19.641-22.505 31.958-51.57 31.958-83.719s-12.318-61.214-31.958-83.719zM512 661.333c11.792 0 21.333 9.542 21.333 21.333v128c0 11.792-9.542 21.333-21.333 21.333s-21.333-9.542-21.333-21.333v-128c0-11.792 9.542-21.333 21.333-21.333zM677.917 592.604c5.458 0 10.917 2.083 15.083 6.25l78.042 78c8.333 8.333 8.333 21.833 0 30.167s-21.833 8.333-30.167 0l-78.042-78c-8.333-8.333-8.333-21.833 0-30.167 4.167-4.167 9.625-6.25 15.083-6.25zM874.667 469.333h-128c-11.792 0-21.333-9.542-21.333-21.333s9.542-21.333 21.333-21.333h128c11.792 0 21.333 9.542 21.333 21.333s-9.542 21.333-21.333 21.333zM693 297.146c-8.333 8.333-21.833 8.333-30.167 0s-8.333-21.833 0-30.167l78.042-78c4.167-4.167 9.625-6.25 15.083-6.25s10.917 2.083 15.083 6.25c8.333 8.333 8.333 21.833 0 30.167l-78.042 78zM512 234.667c-11.792 0-21.333-9.542-21.333-21.333v-128c0-11.792 9.542-21.333 21.333-21.333s21.333 9.542 21.333 21.333v128c0 11.792-9.542 21.333-21.333 21.333zM331 297.146l-78.042-78c-8.333-8.333-8.333-21.833 0-30.167 4.167-4.167 9.625-6.25 15.083-6.25s10.917 2.083 15.083 6.25l78.042 78c8.333 8.333 8.333 21.833 0 30.167s-21.833 8.333-30.167 0zM298.667 448c0 11.792-9.542 21.333-21.333 21.333h-128c-11.792 0-21.333-9.542-21.333-21.333s9.542-21.333 21.333-21.333h128c11.792 0 21.333 9.542 21.333 21.333zM331 598.854c4.167-4.167 9.625-6.25 15.083-6.25s10.917 2.083 15.083 6.25c8.333 8.333 8.333 21.833 0 30.167l-78.042 78c-8.333 8.333-21.833 8.333-30.167 0s-8.333-21.833 0-30.167l78.042-78z" />
<glyph unicode="&#xe914;" glyph-name="SYS010_EXP" data-tags="SYS010_EXP" d="M832 362.792c-11.792 0-21.333-9.542-21.333-21.333v-65.167c0-69.938-56.917-126.833-126.833-126.833h-343.667c-69.917 0-126.833 56.896-126.833 126.833v343.521c0 69.937 56.917 126.854 126.833 126.854h65.375c11.792 0 21.333 9.542 21.333 21.333s-9.542 21.333-21.333 21.333h-65.375c-93.458 0-169.5-76.042-169.5-169.521v-343.521c0-93.458 76.042-169.5 169.5-169.5h343.667c93.458 0 169.5 76.042 169.5 169.5v65.167c0 11.792-9.542 21.333-21.333 21.333zM504.729 429.182c2.607-1.078 5.37-1.641 8.146-1.641h223.667c11.792 0 21.333 9.542 21.333 21.333s-9.542 21.333-21.333 21.333h-172.169l281.628 281.646c8.333 8.333 8.333 21.833 0 30.167s-21.833 8.333-30.167 0l-281.625-281.643v172.185c0 11.792-9.542 21.333-21.333 21.333s-21.333-9.542-21.333-21.333v-223.688c0-2.776 0.563-5.539 1.641-8.146 2.161-5.224 6.323-9.385 11.547-11.547z" />
<glyph unicode="&#xe915;" glyph-name="SYS011_EXP" data-tags="SYS011_EXP" d="M512 874.667c-235.271 0-426.667-191.417-426.667-426.667s191.396-426.667 426.667-426.667 426.667 191.417 426.667 426.667-191.396 426.667-426.667 426.667zM512 64c-211.729 0-384 172.25-384 384s172.271 384 384 384 384-172.25 384-384-172.271-384-384-384zM746.667 469.333h-469.333c-11.792 0-21.333-9.542-21.333-21.333s9.542-21.333 21.333-21.333h469.333c11.792 0 21.333 9.542 21.333 21.333s-9.542 21.333-21.333 21.333z" />
<glyph unicode="&#xe916;" glyph-name="SYS012_EXP" data-tags="SYS012_EXP" d="M512 874.667c-235.271 0-426.667-191.417-426.667-426.667s191.396-426.667 426.667-426.667 426.667 191.417 426.667 426.667-191.396 426.667-426.667 426.667zM512 64c-211.729 0-384 172.25-384 384s172.271 384 384 384 384-172.25 384-384-172.271-384-384-384zM512 618.667c-94.104 0-170.667-76.542-170.667-170.667s76.563-170.667 170.667-170.667 170.667 76.542 170.667 170.667-76.563 170.667-170.667 170.667zM512 320c-70.583 0-128 57.417-128 128s57.417 128 128 128 128-57.417 128-128-57.417-128-128-128z" />
<glyph unicode="&#xe917;" glyph-name="SYS014_EXP" data-tags="SYS014_EXP" d="M512 874.667c-11.792 0-21.333-9.542-21.333-21.333s9.542-21.333 21.333-21.333c211.729 0 384-172.25 384-384s-172.271-384-384-384c-11.792 0-21.333-9.542-21.333-21.333s9.542-21.333 21.333-21.333c235.271 0 426.667 191.417 426.667 426.667s-191.396 426.667-426.667 426.667zM405.333 789.333h-128c-11.792 0-21.333-9.542-21.333-21.333s9.542-21.333 21.333-21.333h128c11.792 0 21.333 9.542 21.333 21.333s-9.542 21.333-21.333 21.333zM405.333 149.333h-128c-11.792 0-21.333-9.542-21.333-21.333s9.542-21.333 21.333-21.333h128c11.792 0 21.333 9.542 21.333 21.333s-9.542 21.333-21.333 21.333zM405.333 661.333h-256c-11.792 0-21.333-9.542-21.333-21.333s9.542-21.333 21.333-21.333h256c11.792 0 21.333 9.542 21.333 21.333s-9.542 21.333-21.333 21.333zM405.333 533.333h-298.667c-11.792 0-21.333-9.542-21.333-21.333s9.542-21.333 21.333-21.333h298.667c11.792 0 21.333 9.542 21.333 21.333s-9.542 21.333-21.333 21.333zM405.333 405.333h-298.667c-11.792 0-21.333-9.542-21.333-21.333s9.542-21.333 21.333-21.333h298.667c11.792 0 21.333 9.542 21.333 21.333s-9.542 21.333-21.333 21.333zM405.333 277.333h-256c-11.792 0-21.333-9.542-21.333-21.333s9.542-21.333 21.333-21.333h256c11.792 0 21.333 9.542 21.333 21.333s-9.542 21.333-21.333 21.333zM533.333 704c-11.792 0-21.333-9.542-21.333-21.333v-256c0-11.792 9.542-21.333 21.333-21.333h256c11.792 0 21.333 9.542 21.333 21.333s-9.542 21.333-21.333 21.333h-234.667v234.667c0 11.792-9.542 21.333-21.333 21.333z" />
<glyph unicode="&#xe918;" glyph-name="BAN001_EXP" data-tags="BAN001_EXP" d="M473.646 248.474v-67.37c0-11.792 9.542-21.333 21.333-21.333s21.333 9.542 21.333 21.333v65.943c96.862 1.997 154.729 41.279 154.729 106.453 0 66.938-72.938 92.958-143.479 118.146-75.354 26.875-124.75 47.625-124.75 89.333 0 37.75 50.75 58.125 98.521 58.125 61.521 0 119.271-30.938 119.854-31.25 10.354-5.583 23.292-1.771 28.917 8.563s1.813 23.271-8.5 28.917c-2.539 1.375-58.982 31.359-125.292 35.596v66.904c0 11.792-9.542 21.333-21.333 21.333s-21.333-9.542-21.333-21.333v-67.875c-67.143-8.448-113.5-47.422-113.5-98.979 0-74.896 81.312-103.917 153.062-129.521 59.229-21.146 115.167-41.104 115.167-77.958 0-57.917-83.563-64.167-119.5-64.167-82.792 0-119.813 32.25-120.021 32.417-8.583 8.083-22.083 7.667-30.146-1.021-8.042-8.604-7.583-22.104 1.021-30.146 1.677-1.568 37.318-34.036 113.917-42.109zM512 21.333c235.271 0 426.667 191.396 426.667 426.667s-191.396 426.667-426.667 426.667-426.667-191.396-426.667-426.667 191.396-426.667 426.667-426.667zM512 832c211.729 0 384-172.271 384-384s-172.271-384-384-384-384 172.271-384 384 172.271 384 384 384z" />
<glyph unicode="&#xe919;" glyph-name="BAN001B_EXP" data-tags="BAN001B_EXP" d="M512 874.667c-235.271 0-426.667-191.396-426.667-426.667s191.396-426.667 426.667-426.667 426.667 191.396 426.667 426.667-191.396 426.667-426.667 426.667zM512 64c-211.729 0-384 172.271-384 384s172.271 384 384 384 384-172.271 384-384-172.271-384-384-384zM234.667 490.667h341.333c11.792 0 21.333 9.542 21.333 21.333s-9.542 21.333-21.333 21.333h-259.036c33.583 76.383 110.023 128 195.036 128 68.125 0 132.729-32.979 172.813-88.229 6.896-9.521 20.292-11.667 29.792-4.75 9.542 6.917 11.667 20.25 4.75 29.792-48.083 66.292-125.604 105.854-207.354 105.854-108.177 0-204.68-69.711-240.602-170.667h-36.732c-11.792 0-21.333-9.542-21.333-21.333s9.542-21.333 21.333-21.333zM686.667 325.479c-39.958-56.875-105.271-90.813-174.667-90.813-85.268 0-161.573 51.5-195.122 128h259.122c11.792 0 21.333 9.542 21.333 21.333s-9.542 21.333-21.333 21.333h-287.151c-0.091 0.013-0.185-0.013-0.276 0h-53.906c-11.792 0-21.333-9.542-21.333-21.333s9.542-21.333 21.333-21.333h36.797c35.93-101.055 132.065-170.667 240.536-170.667 83.271 0 161.625 40.729 209.583 108.938 6.771 9.646 4.458 22.938-5.187 29.729s-22.917 4.437-29.729-5.187z" />
<glyph unicode="&#xe91a;" glyph-name="BAN001C_EXP" data-tags="BAN001C_EXP" d="M512 874.667c-235.271 0-426.667-191.396-426.667-426.667s191.396-426.667 426.667-426.667 426.667 191.396 426.667 426.667-191.396 426.667-426.667 426.667zM512 64c-211.729 0-384 172.271-384 384s172.271 384 384 384 384-172.271 384-384-172.271-384-384-384zM521.938 663.667c71.854 0 114.708-40.583 115.146-41 4.146-4.042 9.521-6.062 14.896-6.062 5.5 0 11.021 2.125 15.187 6.354 8.271 8.396 8.187 21.896-0.208 30.167-2.208 2.167-55 53.208-145.021 53.208-99.083 0-149.333-48.25-149.333-143.437v-72.229h-52.604c-11.792 0-21.333-9.542-21.333-21.333s9.542-21.333 21.333-21.333h52.604v-85.5c0-49.229-62.958-87.833-63.604-88.208-8.187-4.958-12.104-14.771-9.542-24 2.583-9.229 10.958-15.625 20.542-15.625h331.979c11.792 0 21.333 9.542 21.333 21.333s-9.542 21.333-21.333 21.333h-273.854c19.292 21.437 37.146 50.625 37.146 85.167v85.5h96.729c11.792 0 21.333 9.542 21.333 21.333s-9.542 21.333-21.333 21.333h-96.729v72.229c0 52.333 12.917 100.771 106.667 100.771z" />
<glyph unicode="&#xe91b;" glyph-name="BAN002_EXP" data-tags="BAN002_EXP" d="M426.667 554.667c0 11.792-9.542 21.333-21.333 21.333s-21.333-9.542-21.333-21.333v-38.258c-58.625-5.089-100.021-40.557-100.021-88.617 0-65.979 64.417-91.458 121.25-113.938 52.479-20.729 86.854-36.437 86.854-64.437 0-45.375-55.083-52.146-87.917-52.146-61.521 0-88.167 25.396-89.062 26.271-8.187 8.479-21.688 8.729-30.167 0.542s-8.708-21.708-0.542-30.167c1.424-1.461 32.94-32.57 99.604-38.156v-38.635c0-11.792 9.542-21.333 21.333-21.333s21.333 9.542 21.333 21.333v38.747c67.971 6.094 108.083 39.909 108.083 93.544 0 59.104-60.479 83.021-113.813 104.125-56.958 22.521-94.292 39.854-94.292 74.25 0 30.833 36.042 46.979 71.646 46.979 45.958 0 89.479-25.792 89.917-26.042 10.021-5.979 23.167-2.833 29.25 7.271 6.083 10.083 2.854 23.167-7.208 29.25-1.802 1.091-38.042 22.44-83.583 29.651v39.766zM347.083 26.688c19.646-3.646 39.375-5.437 58.938-5.437 64.104 0 126.667 19.292 180.625 56.396 70.417 48.417 117.771 121.375 133.333 205.437 7.062 38.187 7 77.312-0.208 116.271-2.146 11.583-13.333 19.333-24.854 17.104-11.583-2.146-19.25-13.271-17.104-24.854 6.25-33.833 6.333-67.729 0.208-100.771-13.479-72.833-54.521-136.062-115.563-178.021-61.042-41.979-134.792-57.646-207.625-44.167s-136.062 54.521-178.021 115.563c-41.979 61.042-57.667 134.771-44.167 207.625 13.479 72.833 54.521 136.062 115.563 178.021 61 42 134.729 57.729 207.625 44.167 11.5-2.104 22.708 5.5 24.854 17.104 2.146 11.583-5.5 22.708-17.104 24.854-84 15.563-169.125-2.542-239.563-50.958-70.417-48.417-117.771-121.375-133.333-205.437-15.563-84.042 2.542-169.125 50.958-239.563 48.437-70.417 121.375-117.771 205.437-133.333zM542.354 630.833c-4.896-2.833-8.479-7.5-9.938-12.958s-0.708-11.292 2.125-16.187l42.667-73.896c5.875-10.208 18.917-13.667 29.146-7.813l33.125 19.125 18.667-10.813v-38.208c0-11.792 9.542-21.333 21.333-21.333h85.333c11.792 0 21.333 9.542 21.333 21.333v38.208l18.688 10.813 33.125-19.125c10.146-5.854 23.25-2.354 29.146 7.813l42.667 73.896c2.833 4.896 3.583 10.729 2.125 16.187s-5.042 10.125-9.938 12.958l-32.813 18.938v21.938l32.813 18.938c4.896 2.833 8.479 7.5 9.938 12.958s0.708 11.292-2.125 16.187l-42.667 73.896c-5.896 10.229-19 13.708-29.146 7.813l-33.125-19.125-18.687 10.812v38.229c0 11.792-9.542 21.333-21.333 21.333h-85.333c-11.792 0-21.333-9.542-21.333-21.333v-38.229l-18.667-10.813-33.125 19.125c-10.229 5.896-23.271 2.396-29.146-7.813l-42.667-73.896c-2.833-4.896-3.583-10.729-2.125-16.187s5.042-10.125 9.938-12.958l32.813-18.938v-21.938l-32.813-18.937zM607.167 702.5l-25 14.437 21.333 36.938 25.333-14.625c6.583-3.792 14.771-3.813 21.354 0.021l39.979 23.167c6.583 3.813 10.646 10.854 10.646 18.458v29.187h42.667v-29.187c0-7.604 4.062-14.646 10.646-18.458l40-23.167c6.625-3.833 14.771-3.813 21.354-0.021l25.333 14.625 21.333-36.938-25-14.437c-6.604-3.813-10.667-10.854-10.667-18.479v-46.563c0-7.625 4.062-14.667 10.667-18.479l25-14.437-21.333-36.938-25.333 14.625c-6.583 3.792-14.771 3.813-21.354-0.021l-40-23.167c-6.583-3.813-10.646-10.854-10.646-18.458v-29.167h-42.667v29.167c0 7.604-4.062 14.646-10.646 18.458l-39.979 23.167c-6.583 3.833-14.771 3.813-21.354 0.021l-25.333-14.625-21.333 36.938 25 14.437c6.604 3.813 10.667 10.854 10.667 18.479v46.562c0 7.625-4.063 14.667-10.667 18.479zM722.167 619.458c23.292 0 42.25 18.958 42.25 42.271s-18.958 42.271-42.25 42.271c-23.312 0-42.271-18.958-42.271-42.271s18.958-42.271 42.271-42.271zM743.083 661.729l-20.917-0.396c-0.208 0-0.417 0.146-0.417 0.396h21.333z" />
<glyph unicode="&#xe91c;" glyph-name="BAN002B_EXP" data-tags="BAN002B_EXP" d="M201.771 276.604h29.938c0.13-0.536 0.013-1.070 0.187-1.604 24.292-74.396 102.958-126.354 191.292-126.354 50.312 0 98.312 16.479 135.167 46.417 9.146 7.437 10.521 20.875 3.104 30.021-7.417 9.104-20.833 10.479-30.021 3.104-29.25-23.771-67.708-36.875-108.25-36.875-65.138 0-122.81 34.622-145.677 85.292h137.594c11.792 0 21.333 9.542 21.333 21.333s-9.542 21.333-21.333 21.333h-213.333c-11.792 0-21.333-9.542-21.333-21.333s9.542-21.333 21.333-21.333zM423.187 491.354c39.042 0 76.437-12.25 105.312-34.521 9.312-7.187 22.729-5.437 29.917 3.875s5.458 22.708-3.875 29.917c-36.271 27.979-82.938 43.396-131.354 43.396-87.437 0-165.875-51.271-190.75-124.688-0.531-1.57-0.445-3.146-0.602-4.729h-30.065c-11.792 0-21.333-9.542-21.333-21.333s9.542-21.333 21.333-21.333h213.333c11.792 0 21.333 9.542 21.333 21.333s-9.542 21.333-21.333 21.333h-138.227c22.404 51.414 80.732 86.75 146.31 86.75zM347.083 26.688c19.646-3.646 39.375-5.437 58.938-5.437 64.104 0 126.667 19.292 180.625 56.396 70.417 48.417 117.771 121.375 133.333 205.437 7.062 38.187 7 77.312-0.208 116.271-2.146 11.583-13.25 19.333-24.854 17.104-11.583-2.146-19.25-13.271-17.104-24.854 6.25-33.833 6.333-67.729 0.208-100.771-13.479-72.833-54.521-136.062-115.563-178.021-61.021-41.979-134.813-57.646-207.625-44.167-72.833 13.479-136.062 54.521-178.021 115.563-41.979 61.042-57.667 134.771-44.167 207.625 13.479 72.833 54.521 136.062 115.563 178.021 61 42 134.708 57.729 207.625 44.167 11.583-2.104 22.708 5.5 24.854 17.104 2.146 11.583-5.5 22.708-17.104 24.854-83.979 15.563-169.125-2.542-239.563-50.958-70.417-48.417-117.771-121.375-133.333-205.437-15.563-84.042 2.542-169.125 50.958-239.563 48.437-70.417 121.375-117.771 205.437-133.333zM542.354 630.833c-4.896-2.833-8.479-7.5-9.938-12.958s-0.708-11.292 2.125-16.187l42.667-73.896c5.875-10.208 18.938-13.667 29.146-7.813l33.125 19.125 18.667-10.813v-38.208c0-11.792 9.542-21.333 21.333-21.333h85.333c11.792 0 21.333 9.542 21.333 21.333v38.208l18.688 10.813 33.125-19.125c10.125-5.854 23.229-2.354 29.146 7.813l42.667 73.896c2.833 4.896 3.583 10.729 2.125 16.187s-5.042 10.125-9.938 12.958l-32.813 18.938v21.938l32.813 18.938c4.896 2.833 8.479 7.5 9.938 12.958s0.708 11.292-2.125 16.187l-42.667 73.896c-5.917 10.229-19.021 13.708-29.146 7.813l-33.125-19.125-18.687 10.812v38.229c0 11.792-9.542 21.333-21.333 21.333h-85.333c-11.792 0-21.333-9.542-21.333-21.333v-38.229l-18.667-10.813-33.125 19.125c-10.208 5.896-23.271 2.396-29.146-7.813l-42.667-73.896c-2.833-4.896-3.583-10.729-2.125-16.187s5.042-10.125 9.938-12.958l32.813-18.938v-21.938l-32.813-18.937zM607.167 702.5l-25 14.437 21.333 36.938 25.333-14.625c6.583-3.792 14.771-3.813 21.354 0.021l39.979 23.167c6.583 3.813 10.646 10.854 10.646 18.458v29.187h42.667v-29.187c0-7.604 4.062-14.646 10.646-18.458l40-23.167c6.625-3.833 14.771-3.813 21.354-0.021l25.333 14.625 21.333-36.938-25-14.437c-6.604-3.813-10.667-10.854-10.667-18.479v-46.563c0-7.625 4.062-14.667 10.667-18.479l25-14.437-21.333-36.938-25.333 14.625c-6.583 3.792-14.771 3.813-21.354-0.021l-40-23.167c-6.583-3.813-10.646-10.854-10.646-18.458v-29.167h-42.667v29.167c0 7.604-4.062 14.646-10.646 18.458l-39.979 23.167c-6.583 3.833-14.771 3.813-21.354 0.021l-25.333-14.625-21.333 36.938 25 14.437c6.604 3.813 10.667 10.854 10.667 18.479v46.562c0 7.625-4.063 14.667-10.667 18.479zM722.167 619.458c23.292 0 42.25 18.958 42.25 42.271s-18.958 42.271-42.25 42.271c-23.312 0-42.271-18.958-42.271-42.271s18.958-42.271 42.271-42.271zM743.083 661.729l-20.917-0.396c-0.208 0-0.417 0.146-0.417 0.396h21.333z" />
<glyph unicode="&#xe91d;" glyph-name="BAN002C_EXP" data-tags="BAN002C_EXP" d="M347.083 26.688c19.667-3.646 39.375-5.437 58.958-5.437 64.083 0 126.625 19.292 180.583 56.396 70.458 48.437 117.792 121.396 133.333 205.417 7.083 38.146 7.042 77.271-0.208 116.292-2.125 11.583-13.542 19.333-24.833 17.104-11.583-2.146-19.25-13.271-17.083-24.854 6.25-33.875 6.333-67.771 0.208-100.771-13.5-72.833-54.542-136.062-115.583-178.021-61-42-134.75-57.729-207.625-44.167-72.833 13.479-136.042 54.521-178 115.563-42 61.042-57.667 134.771-44.208 207.625 13.5 72.833 54.542 136.062 115.583 178.021 61.042 42.021 134.833 57.667 207.625 44.167 11.292-2.104 22.708 5.5 24.833 17.104 2.167 11.583-5.5 22.708-17.083 24.854-84 15.583-169.083-2.521-239.542-50.958s-117.792-121.396-133.333-205.437c-15.583-84.042 2.5-169.125 50.958-239.563 48.417-70.417 121.375-117.771 205.417-133.333zM427 490.521c55.625 0 87.875-30.229 89.375-31.667 4.125-4.042 9.5-6.062 14.875-6.062 5.5 0 11 2.125 15.208 6.354 8.25 8.396 8.167 21.896-0.208 30.167-1.833 1.792-45.333 43.875-119.25 43.875-82.25 0-123.958-40.104-123.958-119.229v-51.104h-39.75c-11.792 0-21.333-9.542-21.333-21.333s9.542-21.333 21.333-21.333h39.75v-64.187c0-27.208-38.208-58.833-51.583-67.75-7.792-5.229-11.292-14.958-8.583-23.958 2.75-8.979 11-15.146 20.417-15.146h267.958c11.792 0 21.333 9.542 21.333 21.333s-9.542 21.333-21.333 21.333h-212.708c14.583 17.542 27.167 39.75 27.167 64.187v64.187h81.292c11.792 0 21.333 9.542 21.333 21.333s-9.542 21.333-21.333 21.333h-81.292v51.104c0 45.958 13.833 76.563 81.292 76.563zM542.375 630.833c-10.208-5.896-13.708-18.938-7.792-29.146l42.667-73.896c2.833-4.896 7.458-8.479 12.958-9.938 5.417-1.437 11.292-0.688 16.167 2.125l33.125 19.125 18.667-10.813v-38.208c0-11.792 9.542-21.333 21.333-21.333h85.333c11.792 0 21.333 9.542 21.333 21.333v38.208l18.667 10.813 33.125-19.125c10.25-5.875 23.292-2.437 29.125 7.813l42.667 73.896c2.833 4.896 3.625 10.729 2.167 16.187-1.5 5.458-5.042 10.125-9.958 12.958l-32.833 18.938v21.938l32.833 18.938c4.917 2.833 8.458 7.5 9.958 12.958 1.458 5.458 0.667 11.292-2.167 16.187l-42.667 73.896c-5.875 10.229-18.958 13.708-29.125 7.813l-33.125-19.125-18.667 10.813v38.229c0 11.792-9.542 21.333-21.333 21.333h-85.333c-11.792 0-21.333-9.542-21.333-21.333v-38.229l-18.667-10.813-33.125 19.125c-4.875 2.813-10.75 3.583-16.167 2.125-5.5-1.458-10.125-5.042-12.958-9.938l-42.667-73.896c-5.917-10.208-2.417-23.25 7.792-29.146l32.792-18.938v-21.938l-32.792-18.937zM607.167 702.5l-25 14.437 21.333 36.938 25.333-14.625c6.625-3.813 14.75-3.792 21.375 0.021l40 23.167c6.583 3.813 10.625 10.854 10.625 18.458v29.187h42.667v-29.187c0-7.604 4.042-14.646 10.625-18.458l39.958-23.167c6.667-3.833 14.792-3.854 21.375-0.021l25.375 14.625 21.333-36.938-25.042-14.437c-6.583-3.813-10.667-10.854-10.667-18.479v-46.563c0-7.625 4.083-14.667 10.667-18.479l25.042-14.437-21.333-36.938-25.375 14.625c-6.625 3.813-14.75 3.792-21.375-0.021l-39.958-23.167c-6.583-3.813-10.625-10.854-10.625-18.458v-29.167h-42.667v29.167c0 7.604-4.042 14.646-10.625 18.458l-40 23.167c-6.625 3.792-14.75 3.813-21.375 0.021l-25.333-14.625-21.333 36.938 25 14.437c6.583 3.813 10.667 10.854 10.667 18.479v46.562c0 7.625-4.083 14.667-10.667 18.479zM722.167 619.458c23.292 0 42.25 18.958 42.25 42.271s-18.958 42.271-42.25 42.271c-23.333 0-42.292-18.958-42.292-42.271s18.958-42.271 42.292-42.271zM743.083 661.729l-20.917-0.396c-0.208 0-0.417 0.146-0.417 0.396h21.333z" />
<glyph unicode="&#xe91e;" glyph-name="BAN003_EXP" data-tags="BAN003_EXP" d="M226.208 106.667h93.792c11.792 0 21.333 9.542 21.333 21.333v22.362l137.708-34.383c21.583-7.271 50.292-10.729 80.083-10.729 45.417 0 93.25 8.021 121.875 22.792l181.375 93.958c33.917 22.167 44.875 59.146 27.917 94.208-7.375 15.229-19.792 26.146-35.917 31.542-18.125 6.125-39.708 4.25-56.875-4.458l-73.216-34.234c-5.003 30.339-31.216 53.609-62.951 53.609h-140.5c-13.75 0-26.667 5.354-36.417 15.083-17.792 17.792-41.417 27.583-66.583 27.583h-76.5v21.333c0 11.792-9.542 21.333-21.333 21.333h-170.667c-11.792 0-21.333-9.542-21.333-21.333v-221.792c0-54.146 44.042-98.208 98.208-98.208zM417.833 362.667c13.75 0 26.667-5.354 36.417-15.083 17.792-17.792 41.417-27.583 66.583-27.583h140.5c11.75 0 21.333-9.563 21.333-21.333s-9.583-21.333-21.333-21.333h-128c-11.792 0-21.333-9.542-21.333-21.333s9.542-21.333 21.333-21.333h128c17.813 0 33.917 7.341 45.529 19.122l109.388 51.169c7.583 3.917 17.25 4.813 24.583 2.354 5.125-1.729 8.708-4.896 11.042-9.688 9.583-19.792-1.708-32.625-10.958-38.833l-179.458-92.854c-37.167-19.146-125.458-24.104-170.458-9.062l-149.667 37.435v168.357h76.5zM170.667 405.333h128v-256h-72.458c-30.625 0-55.542 24.917-55.542 55.542v200.458zM569.25 438.437c2.208-0.729 4.458-1.104 6.75-1.104s4.542 0.375 6.75 1.104c8.417 2.813 206.583 70.854 206.583 244.229 0 64.708-52.625 117.333-117.333 117.333-39.625 0-74.75-19.75-96-49.938-21.25 30.188-56.375 49.938-96 49.938-64.708 0-117.333-52.625-117.333-117.333 0-173.375 198.167-241.417 206.583-244.229zM480 757.333c41.167 0 74.667-33.5 74.667-74.667 0-11.792 9.542-21.333 21.333-21.333s21.333 9.542 21.333 21.333c0 41.167 33.5 74.667 74.667 74.667s74.667-33.5 74.667-74.667c0-126.396-138.25-188.417-170.708-201.229-32.458 12.729-170.625 74.437-170.625 201.229 0 41.167 33.5 74.667 74.667 74.667z" />
<glyph unicode="&#xe91f;" glyph-name="BAN004_EXP" data-tags="BAN004_EXP" d="M171.042 258.792c0-157.667 114.75-237.625 341.083-237.625s341.125 79.958 341.125 237.625c0 160.005-77.997 328.156-189.62 417.607 42.401 18.878 103.453 57.904 103.453 126.685 0 24.646-8.083 43.167-23.958 55.062-35.792 26.792-97.667 8.563-157.458-9.021-27.917-8.208-56.792-16.688-73.333-16.688-0.208 0.021-0.5 0-0.625 0-16.375 0-45.333 8.5-73.333 16.75-59.75 17.5-121.5 35.729-157.208 8.979-15.875-11.896-23.958-30.437-23.958-55.083 0-68.74 61.003-107.776 103.414-126.661-111.615-89.495-189.581-257.643-189.581-417.63zM810.583 258.792c0-131.187-97.625-194.958-298.458-194.958-200.792 0-298.417 63.771-298.417 194.958 0 159.958 83.484 328.023 198.932 402.542h198.917c115.518-74.461 199.026-242.536 199.026-402.542zM299.875 803.083c0 15.792 5.167 19.646 6.875 20.917 18.542 13.979 76.917-3.229 119.583-15.75 32.292-9.5 62.833-18.479 85.125-18.479 0.417-0.021 0.875 0 1.125 0 22.458 0 52.875 8.958 85.125 18.437 42.708 12.521 101.25 29.688 119.833 15.792 1.708-1.271 6.875-5.146 6.875-20.917 0-64.187-92.5-94.312-108.708-99.083h-207.042c-16 4.813-108.792 35.521-108.792 99.083zM526.375 365.396c-56.958 22.521-94.292 39.854-94.292 74.25 0 30.833 36.042 46.958 71.625 46.958 45.917 0 89.5-25.771 89.917-26.021 9.958-6.021 23.167-2.813 29.25 7.292 6.083 10.083 2.833 23.146-7.208 29.229-1.802 1.091-38.049 22.424-83.583 29.63v39.786c0 11.792-9.542 21.333-21.333 21.333s-21.333-9.542-21.333-21.333v-38.279c-58.604-5.086-100-40.539-100-88.596 0-65.979 64.417-91.458 121.25-113.938 52.458-20.729 86.833-36.437 86.833-64.437 0-45.375-55.083-52.146-87.917-52.146-61.5 0-88.167 25.396-89.083 26.271-8.083 8.437-21.625 8.729-30.167 0.542-8.458-8.187-8.708-21.708-0.5-30.167 1.404-1.461 32.919-32.57 99.583-38.156v-39.677c0-11.792 9.542-21.333 21.333-21.333s21.333 9.542 21.333 21.333v39.789c67.958 6.094 108.083 39.911 108.083 93.544 0 59.104-60.458 83.021-113.792 104.125z" />
<glyph unicode="&#xe920;" glyph-name="BAN004B_EXP" data-tags="BAN004B_EXP" d="M350.667 410.062c-0.534-1.57-0.448-3.146-0.607-4.729h-30.060c-11.792 0-21.333-9.542-21.333-21.333s9.542-21.333 21.333-21.333h213.333c11.792 0 21.333 9.542 21.333 21.333s-9.542 21.333-21.333 21.333h-138.229c22.396 51.414 80.734 86.75 146.312 86.75 39.042 0 76.458-12.25 105.292-34.521 9.25-7.187 22.75-5.521 29.917 3.875 7.208 9.312 5.5 22.708-3.833 29.917-36.292 27.979-82.958 43.396-131.375 43.396-87.417 0-165.875-51.271-190.75-124.688zM649.667 228.917c-29.25-23.792-67.708-36.875-108.25-36.875-65.167 0-122.844 34.633-145.654 85.292h137.57c11.792 0 21.333 9.542 21.333 21.333s-9.542 21.333-21.333 21.333h-213.333c-11.792 0-21.333-9.542-21.333-21.333s9.542-21.333 21.333-21.333h29.943c0.128-0.529 0.010-1.057 0.182-1.583 24.25-74.417 102.917-126.375 191.292-126.375 50.333 0 98.333 16.479 135.167 46.417 9.125 7.437 10.542 20.875 3.083 30.021-7.458 9.167-20.875 10.542-30 3.104zM171.042 258.792c0-157.667 114.75-237.625 341.083-237.625s341.125 79.958 341.125 237.625c0 160.005-77.997 328.156-189.62 417.607 42.401 18.878 103.453 57.904 103.453 126.685 0 24.646-8.083 43.167-23.958 55.062-35.792 26.792-97.625 8.563-157.458-9.021-27.917-8.208-56.792-16.688-73.333-16.688-0.208 0.021-0.5 0-0.625 0-16.375 0-45.333 8.5-73.333 16.75-59.75 17.5-121.458 35.729-157.208 8.979-15.875-11.896-23.958-30.437-23.958-55.083 0-68.74 61.003-107.776 103.414-126.661-111.615-89.495-189.581-257.643-189.581-417.63zM810.583 258.792c0-131.187-97.625-194.958-298.458-194.958-200.792 0-298.417 63.771-298.417 194.958 0 159.958 83.484 328.023 198.932 402.542h198.917c115.518-74.461 199.026-242.536 199.026-402.542zM299.875 803.083c0 15.792 5.167 19.646 6.875 20.917 18.583 13.979 76.917-3.229 119.583-15.75 32.292-9.5 62.833-18.479 85.125-18.479 0.417-0.021 0.875 0 1.125 0 22.458 0 52.875 8.958 85.125 18.437 42.708 12.521 101.25 29.688 119.833 15.792 1.708-1.271 6.875-5.146 6.875-20.917 0-64.187-92.5-94.312-108.708-99.083h-207.042c-16 4.813-108.792 35.521-108.792 99.083z" />
<glyph unicode="&#xe921;" glyph-name="BAN004C_EXP" data-tags="BAN004C_EXP" d="M171.042 258.792c0-157.667 114.75-237.625 341.083-237.625s341.125 79.958 341.125 237.625c0 160.005-77.997 328.156-189.62 417.607 42.401 18.878 103.453 57.904 103.453 126.685 0 24.646-8.083 43.167-23.958 55.062-35.833 26.792-97.667 8.563-157.458-9.021-27.917-8.208-56.792-16.688-73.333-16.688-0.208 0.021-0.458 0-0.625 0-16.375 0-45.333 8.5-73.333 16.75-59.708 17.5-121.458 35.729-157.208 8.979-15.875-11.896-23.958-30.437-23.958-55.083 0-68.74 61.003-107.776 103.414-126.661-111.615-89.495-189.581-257.643-189.581-417.63zM810.583 258.792c0-131.187-97.625-194.958-298.458-194.958-200.792 0-298.417 63.771-298.417 194.958 0 159.958 83.484 328.023 198.932 402.542h198.917c115.518-74.461 199.026-242.536 199.026-402.542zM299.875 803.083c0 15.792 5.167 19.646 6.875 20.917 18.542 13.979 76.917-3.229 119.583-15.75 32.292-9.5 62.833-18.479 85.125-18.479 0.375-0.021 0.875 0 1.125 0 22.458 0 52.875 8.958 85.125 18.437 42.708 12.521 101.208 29.688 119.833 15.792 1.708-1.271 6.875-5.146 6.875-20.917 0-64.187-92.5-94.312-108.708-99.083h-207.042c-16 4.813-108.792 35.521-108.792 99.083zM530.583 513.125c55.667 0 88-30.312 89.417-31.688 4.125-4.021 9.5-6.042 14.875-6.042 5.5 0 11.042 2.125 15.208 6.354 8.25 8.396 8.167 21.896-0.25 30.167-1.792 1.792-45.375 43.875-119.25 43.875-82.208 0-123.917-40.104-123.917-119.229v-51.503l-39.542 0.398c-10.958 2.021-21.417-9.312-21.542-21.125-0.125-11.771 9.333-21.417 21.125-21.542l39.958-0.401v-63.786c0-27.187-38.167-58.813-51.583-67.729-7.75-5.208-11.25-14.875-8.583-23.854 2.667-8.958 10.833-15.167 20.208-15.25l267.958-2.563c0.083 0 0.125 0 0.208 0 11.708 0 21.208 9.417 21.333 21.125 0.125 11.792-9.333 21.437-21.125 21.542l-213.333 2.042c14.75 17.604 27.583 40 27.583 64.688v63.357l78.833-0.794c0.083 0 0.125 0 0.208 0 11.667 0 21.208 9.417 21.333 21.125 0.125 11.771-9.333 21.417-21.125 21.542l-79.25 0.797v51.932c0 45.958 13.833 76.563 81.25 76.563z" />
<glyph unicode="&#xe922;" glyph-name="BAN005_EXP" data-tags="BAN005_EXP" d="M508.977 152.529c-3.448 17.089-9.648 33.755-18.628 49.307l-117.745 203.94c-15.792 27.352-23.008 58.143-21.685 88.646-126.049-32.932-213.049-102.857-213.049-183.818 0-112.63 168.354-203.938 376.026-203.938s376.026 91.307 376.026 203.938c0 80.964-86.992 150.909-213.049 183.839-1.12 25.784-8.336 51.362-21.685 74.482l-117.745 203.94c-8.977 15.552-15.18 32.219-18.625 49.307l-4.922-8.521c-29.143-50.477-29.143-112.667-0.003-163.146l94.198-163.154c29.143-50.479 29.143-112.672 0-163.151l-4.922-8.523c-3.445 17.091-9.648 33.755-18.625 49.307l-141.297 244.732c-8.977 15.552-15.18 32.219-18.625 49.307l-4.922-8.523c-29.044-50.307-29.135-112.247-0.286-162.633l-0.008-0.005 94.49-163.661c29.143-50.479 29.143-112.669 0-163.151l-4.919-8.521z" />
<glyph unicode="&#xe923;" glyph-name="BAN006_EXP" data-tags="BAN006_EXP" d="M426.563 356.021c71.417 0 126.604 47.292 137.417 118.25l16.5 131.979c5.896 36.271-4.396 72.167-28.979 101.062-29.604 34.792-77.479 56.417-124.938 56.417-47.396 0-95.187-21.583-124.729-56.312-24.583-28.917-34.875-64.854-29.063-100.396l16.667-133.312c10.729-70.396 65.833-117.688 137.125-117.688zM334.354 679.771c21.646 25.479 56.979 41.292 92.208 41.292 35.312 0 70.729-15.854 92.437-41.396 11.563-13.583 24.312-36.167 19.25-67.354l-16.521-132.187c-7.542-49.458-44.896-81.437-95.167-81.437-50.146 0-87.417 31.979-94.875 80.875l-16.688 133.542c-4.958 30.458 7.771 53.062 19.354 66.667zM917.333 746.667h-106.667v106.667c0 11.792-9.542 21.333-21.333 21.333s-21.333-9.542-21.333-21.333v-106.667h-106.667c-11.792 0-21.333-9.542-21.333-21.333s9.542-21.333 21.333-21.333h106.667v-106.667c0-11.792 9.542-21.333 21.333-21.333s21.333 9.542 21.333 21.333v106.667h106.667c11.792 0 21.333 9.542 21.333 21.333s-9.542 21.333-21.333 21.333zM106.667 194.375v-24.896c0-34.625 28.187-62.813 62.813-62.813h514.375c34.625 0 62.813 28.187 62.813 62.813v24.896c0 65.542-71.771 113.104-170.667 113.104-31.542 0-70.187-7.625-97.104-14.042l-15.167-3.854c-13.458-3.521-28.708-7.5-37.062-7.5-8.771 0-18.104 2.563-27.979 5.271l-7.104 1.917c-14.479 3.833-29.167 6.958-43.979 9.333l-11.542 1.938c-19.063 3.25-40.646 6.937-58.729 6.937-94.104 0-170.667-50.729-170.667-113.104zM149.333 194.375c0 37.521 59.813 70.437 128 70.437 14.458 0 35.021-3.521 51.563-6.333l11.917-2c13.437-2.167 26.75-5 39.917-8.479l6.688-1.792c11.583-3.187 24.729-6.792 39.25-6.792 13.833 0 31.125 4.521 47.854 8.875l14.292 3.646c34.854 8.292 65.813 12.875 87.188 12.875 72.979 0 128-30.292 128-70.437v-24.896c0-11.104-9.042-20.146-20.146-20.146h-514.375c-11.104 0-20.146 9.042-20.146 20.146v24.896z" />
<glyph unicode="&#xe924;" glyph-name="BAN007_EXP" data-tags="BAN007_EXP" d="M426.563 356.021c71.417 0 126.604 47.292 137.417 118.25l16.5 131.979c5.896 36.271-4.396 72.167-28.979 101.062-29.604 34.792-77.479 56.417-124.938 56.417-47.396 0-95.187-21.583-124.729-56.312-24.583-28.917-34.875-64.854-29.063-100.396l16.667-133.312c10.729-70.396 65.833-117.688 137.125-117.688zM334.354 679.771c21.646 25.479 56.979 41.292 92.208 41.292 35.312 0 70.729-15.854 92.437-41.396 11.563-13.583 24.312-36.167 19.25-67.354l-16.521-132.187c-7.542-49.458-44.896-81.437-95.167-81.437-50.146 0-87.417 31.979-94.875 80.875l-16.688 133.542c-4.958 30.458 7.771 53.062 19.354 66.667zM106.667 194.375v-24.896c0-34.625 28.187-62.813 62.813-62.813h514.375c34.625 0 62.813 28.187 62.813 62.813v24.896c0 65.542-71.771 113.104-170.667 113.104-31.542 0-70.187-7.625-97.104-14.042l-15.167-3.854c-13.458-3.521-28.708-7.5-37.062-7.5-8.771 0-18.104 2.563-27.979 5.271l-7.104 1.917c-14.479 3.833-29.167 6.958-43.979 9.333l-11.542 1.938c-19.063 3.25-40.646 6.937-58.729 6.937-94.104 0-170.667-50.729-170.667-113.104zM149.333 194.375c0 37.521 59.813 70.437 128 70.437 14.458 0 35.021-3.521 51.563-6.333l11.917-2c13.437-2.167 26.75-5 39.917-8.479l6.688-1.792c11.583-3.187 24.729-6.792 39.25-6.792 13.833 0 31.125 4.521 47.854 8.875l14.292 3.646c34.854 8.292 65.813 12.875 87.188 12.875 72.979 0 128-30.292 128-70.437v-24.896c0-11.104-9.042-20.146-20.146-20.146h-514.375c-11.104 0-20.146 9.042-20.146 20.146v24.896zM746.667 583.312c0.5 0 1 0.021 1.5 0.062 7.437 0.521 14.062 4.875 17.458 11.5l128 248.688c5.396 10.479 1.271 23.354-9.187 28.729-10.5 5.417-23.354 1.292-28.729-9.187l-111.917-217.437-65.042 91.979c-6.75 9.625-20.146 11.938-29.729 5.104-9.625-6.792-11.917-20.104-5.104-29.729l85.333-120.688c4.021-5.688 10.521-9.021 17.417-9.021z" />
<glyph unicode="&#xe925;" glyph-name="BAN008_EXP" data-tags="BAN008_EXP" d="M106.667 746.667c-11.792 0-21.333-9.542-21.333-21.333v-512c0-11.792 9.542-21.333 21.333-21.333h810.667c11.792 0 21.333 9.542 21.333 21.333v512c0 11.792-9.542 21.333-21.333 21.333h-810.667zM896 381.844c-76.893-9.74-137.437-70.284-147.177-147.177h-473.646c-9.74 76.893-70.284 137.437-147.177 147.177v174.979c76.893 9.74 137.437 70.284 147.177 147.177h473.646c9.74-76.893 70.284-137.437 147.177-147.177v-174.979zM232.51 704c-9.047-53.437-51.073-95.464-104.51-104.51v104.51h104.51zM128 339.177c53.437-9.047 95.464-51.073 104.51-104.51h-104.51v104.51zM791.49 234.667c9.047 53.437 51.073 95.464 104.51 104.51v-104.51h-104.51zM896 599.49c-53.437 9.047-95.464 51.073-104.51 104.51h104.51v-104.51zM526.146 491.437c-49.062 19.563-81.229 34.542-81.229 63.479 0 25.688 30.354 39.125 60.354 39.125 39.542 0 77.187-22.437 77.563-22.667 10.083-6.062 23.167-2.854 29.292 7.208 6.083 10.062 2.917 23.146-7.125 29.271-1.583 0.953-32.729 19.385-72.229 26.19v26.206c0 11.792-9.542 21.333-21.333 21.333s-21.333-9.542-21.333-21.333v-24.646c-51.625-5.365-87.854-37.458-87.854-80.688 0-60.021 59.938-83.917 108.083-103.104 45.125-18 74.708-31.521 74.708-54.813 0-38.042-46.75-43.729-74.625-43.729-52.75 0-75.604 21.771-76.333 22.479-8.146 8.479-21.646 8.75-30.167 0.625-8.5-8.146-8.792-21.646-0.625-30.167 3.122-3.273 30.049-29.172 86.813-34.474v-25.755c0-11.792 9.542-21.333 21.333-21.333s21.333 9.542 21.333 21.333v26.122c69.146 7.193 94.938 47.036 94.938 84.898 0 53.958-53.958 75.458-101.563 94.437z" />
<glyph unicode="&#xe926;" glyph-name="BAN008B_EXP" data-tags="BAN008B_EXP" d="M917.333 746.667h-810.667c-11.792 0-21.333-9.542-21.333-21.333v-512c0-11.792 9.542-21.333 21.333-21.333h810.667c11.792 0 21.333 9.542 21.333 21.333v512c0 11.792-9.542 21.333-21.333 21.333zM128 556.823c76.893 9.74 137.437 70.284 147.177 147.177h473.646c9.74-76.893 70.284-137.437 147.177-147.177v-174.979c-76.893-9.74-137.437-70.284-147.177-147.177h-473.646c-9.74 76.893-70.284 137.437-147.177 147.177v174.979zM896 599.49c-53.437 9.047-95.464 51.073-104.51 104.51h104.51v-104.51zM232.51 704c-9.047-53.437-51.073-95.464-104.51-104.51v104.51h104.51zM128 339.177c53.437-9.047 95.464-51.073 104.51-104.51h-104.51v104.51zM791.49 234.667c9.047 53.437 51.073 95.464 104.51 104.51v-104.51h-104.51zM322.563 489.104h209.125c11.792 0 21.333 9.542 21.333 21.333s-9.542 21.333-21.333 21.333h-134.849c22.089 49.922 78.911 84.208 142.786 84.208 38.167 0 74.729-11.979 102.958-33.75 9.333-7.187 22.708-5.458 29.917 3.875 7.187 9.312 5.458 22.708-3.875 29.917-35.625 27.479-81.437 42.625-129 42.625-85.875 0-162.938-50.375-187.396-122.521-0.49-1.445-0.383-2.896-0.555-4.354h-29.112c-11.792 0-21.333-9.542-21.333-21.333s9.542-21.333 21.333-21.333zM322.563 405.458h28.997c0.109-0.424 0.010-0.849 0.148-1.271 23.854-73.104 101.146-124.167 187.917-124.167 49.396 0 96.542 16.187 132.771 45.604 9.146 7.437 10.521 20.875 3.104 30.021-7.458 9.125-20.833 10.521-30.021 3.104-28.625-23.25-66.229-36.062-105.854-36.062-63.432 0-119.612 33.576-142.154 82.771h134.216c11.792 0 21.333 9.542 21.333 21.333s-9.542 21.333-21.333 21.333h-209.125c-11.792 0-21.333-9.542-21.333-21.333s9.542-21.333 21.333-21.333z" />
<glyph unicode="&#xe927;" glyph-name="BAN008C_EXP" data-tags="BAN008C_EXP" d="M917.333 746.667h-810.667c-11.792 0-21.333-9.542-21.333-21.333v-512c0-11.792 9.542-21.333 21.333-21.333h810.667c11.792 0 21.333 9.542 21.333 21.333v512c0 11.792-9.542 21.333-21.333 21.333zM128 556.823c76.906 9.74 137.44 70.284 147.177 147.177h473.646c9.737-76.893 70.271-137.437 147.177-147.177v-174.979c-76.906-9.74-137.44-70.284-147.177-147.177h-473.646c-9.737 76.893-70.271 137.437-147.177 147.177v174.979zM896 599.49c-53.437 9.047-95.464 51.073-104.51 104.51h104.51v-104.51zM232.51 704c-9.047-53.437-51.073-95.464-104.51-104.51v104.51h104.51zM128 339.177c53.437-9.047 95.464-51.073 104.51-104.51h-104.51v104.51zM791.49 234.667c9.047 53.437 51.073 95.464 104.51 104.51v-104.51h-104.51zM366.875 448.187l39.792-0.086v-64.102c0-27.208-38.208-58.833-51.583-67.75-7.792-5.229-11.292-14.958-8.583-23.958 2.75-8.979 11-15.146 20.417-15.146h267.958c11.792 0 21.333 9.542 21.333 21.333s-9.542 21.333-21.333 21.333h-212.708c14.583 17.542 27.167 39.75 27.167 64.187v64.008l81.25-0.174c11.75 0 21.292 9.521 21.333 21.292s-9.5 21.354-21.292 21.375l-81.292 0.177v51.281c0 45.958 13.833 76.563 81.25 76.563 55.708 0 88-30.312 89.417-31.688 4.125-4.021 9.5-6.042 14.875-6.042 5.5 0 11.042 2.125 15.208 6.354 8.25 8.396 8.167 21.896-0.25 30.167-1.792 1.792-45.375 43.875-119.25 43.875-82.208 0-123.917-40.104-123.917-119.229v-51.19l-39.75 0.086c-11.75 0-21.292-9.521-21.333-21.292s9.5-21.354 21.292-21.375z" />
<glyph unicode="&#xe928;" glyph-name="BAN009_EXP" data-tags="BAN009_EXP" d="M533.333 618.667c11.792 0 21.333 9.542 21.333 21.333v136.833l57.75-57.75c4.167-4.167 9.625-6.25 15.083-6.25s10.917 2.083 15.083 6.25c8.333 8.333 8.333 21.833 0 30.167l-94.167 94.167c-8.333 8.333-21.833 8.333-30.167 0l-94.167-94.167c-8.333-8.333-8.333-21.833 0-30.167s21.833-8.333 30.167 0l57.75 57.75v-136.833c0-11.792 9.542-21.333 21.333-21.333zM533.333 277.333c-11.792 0-21.333-9.542-21.333-21.333v-136.833l-57.75 57.75c-8.333 8.333-21.833 8.333-30.167 0s-8.333-21.833 0-30.167l94.167-94.167c4.167-4.167 9.625-6.25 15.083-6.25s10.917 2.083 15.083 6.25l94.167 94.167c8.333 8.333 8.333 21.833 0 30.167s-21.833 8.333-30.167 0l-57.75-57.75v136.833c0 11.792-9.542 21.333-21.333 21.333zM845.167 656.229c-8.958 7.583-22.417 6.583-30.083-2.375l-191.875-224.646-77.292 83.896c-4.25 4.542-11.5 6.771-16.292 6.875-6.167-0.187-11.958-3.021-15.875-7.771l-149.333-181.375-76.958 83.563c-4.25 4.583-10.25 7.083-16.5 6.854s-12.042-3.167-15.917-8.062l-80.458-101.563c-7.333-9.229-5.792-22.646 3.458-29.979 3.917-3.104 8.583-4.604 13.25-4.604 6.292 0 12.5 2.771 16.708 8.083l64.958 82 76.667-83.208c4.25-4.542 11.5-7.021 16.292-6.875 6.167 0.187 11.958 3.021 15.875 7.771l149.333 181.375 76.958-83.583c4.042-4.375 9.75-6.875 15.708-6.875 0.125 0 0.25 0 0.417 0 6.083 0.125 11.833 2.833 15.792 7.479l207.5 242.938c7.667 8.958 6.625 22.417-2.333 30.083z" />
<glyph unicode="&#xe929;" glyph-name="BAN010_EXP" data-tags="BAN010_EXP" d="M149.333 149.333h725.333c11.792 0 21.333 9.542 21.333 21.333v341.333c0 11.792-9.542 21.333-21.333 21.333h-156.656l181.99 181.979c23.833 23.833 23.833 62.625 0 86.479l-34.25 34.187c-23.833 23.875-62.625 23.792-86.458 0l-302.625-302.646h-327.333c-11.792 0-21.333-9.542-21.333-21.333v-341.333c0-11.792 9.542-21.333 21.333-21.333zM809.458 805.813c7.167 7.25 18.958 7.187 26.125-0.021l34.25-34.187c7.208-7.208 7.208-18.917 0-26.125l-297.5-297.479h-60.333v60.333l297.458 297.479zM170.667 490.667h298.667v-64c0-11.792 9.542-21.333 21.333-21.333h90.5c5.667 0 11.083 2.25 15.083 6.25l79.091 79.083h177.992v-298.667h-682.667v298.667zM234.667 405.333h149.333c11.792 0 21.333 9.542 21.333 21.333s-9.542 21.333-21.333 21.333h-149.333c-11.792 0-21.333-9.542-21.333-21.333s9.542-21.333 21.333-21.333zM789.333 362.667h-554.667c-11.792 0-21.333-9.542-21.333-21.333s9.542-21.333 21.333-21.333h554.667c11.792 0 21.333 9.542 21.333 21.333s-9.542 21.333-21.333 21.333zM789.333 277.333h-149.333c-11.792 0-21.333-9.542-21.333-21.333s9.542-21.333 21.333-21.333h149.333c11.792 0 21.333 9.542 21.333 21.333s-9.542 21.333-21.333 21.333zM176.917 624.917c4.167-4.167 9.625-6.25 15.083-6.25s10.917 2.083 15.083 6.25l70.25 70.25 70.25-70.25c4.167-4.167 9.625-6.25 15.083-6.25s10.917 2.083 15.083 6.25c8.333 8.333 8.333 21.833 0 30.167l-70.25 70.25 70.25 70.25c8.333 8.333 8.333 21.833 0 30.167s-21.833 8.333-30.167 0l-70.25-70.25-70.25 70.25c-8.333 8.333-21.833 8.333-30.167 0s-8.333-21.833 0-30.167l70.25-70.25-70.25-70.25c-8.333-8.333-8.333-21.833 0-30.167z" />
<glyph unicode="&#xe92a;" glyph-name="BAN010B_EXP" data-tags="BAN010B_EXP" d="M149.333 149.333h725.333c11.792 0 21.333 9.542 21.333 21.333v341.333c0 11.792-9.542 21.333-21.333 21.333h-156.656l181.99 181.979c23.833 23.833 23.833 62.625 0 86.479l-34.25 34.187c-23.875 23.875-62.667 23.792-86.458 0l-302.625-302.646h-327.333c-11.792 0-21.333-9.542-21.333-21.333v-341.333c0-11.792 9.542-21.333 21.333-21.333zM809.458 805.813c7.208 7.25 19 7.187 26.125-0.021l34.25-34.187c7.208-7.208 7.208-18.917 0-26.125l-297.5-297.479h-60.333v60.333l297.458 297.479zM170.667 490.667h298.667v-64c0-11.792 9.542-21.333 21.333-21.333h90.5c5.667 0 11.083 2.25 15.083 6.25l79.091 79.083h177.992v-298.667h-682.667v298.667zM234.667 405.333h149.333c11.792 0 21.333 9.542 21.333 21.333s-9.542 21.333-21.333 21.333h-149.333c-11.792 0-21.333-9.542-21.333-21.333s9.542-21.333 21.333-21.333zM789.333 362.667h-554.667c-11.792 0-21.333-9.542-21.333-21.333s9.542-21.333 21.333-21.333h554.667c11.792 0 21.333 9.542 21.333 21.333s-9.542 21.333-21.333 21.333zM789.333 277.333h-149.333c-11.792 0-21.333-9.542-21.333-21.333s9.542-21.333 21.333-21.333h149.333c11.792 0 21.333 9.542 21.333 21.333s-9.542 21.333-21.333 21.333z" />
<glyph unicode="&#xe92b;" glyph-name="BAN011_EXP" data-tags="BAN011_EXP" d="M149.333 149.333h682.667c11.792 0 21.333 9.542 21.333 21.333v341.333c0 11.792-9.542 21.333-21.333 21.333h-113.99l181.99 181.979c23.833 23.833 23.833 62.625 0 86.479l-34.25 34.187c-23.875 23.875-62.667 23.792-86.458 0l-302.625-302.646h-327.333c-11.792 0-21.333-9.542-21.333-21.333v-341.333c0-11.792 9.542-21.333 21.333-21.333zM809.458 805.813c7.208 7.25 19 7.187 26.125-0.021l34.25-34.187c7.208-7.208 7.208-18.917 0-26.125l-297.5-297.479h-60.333v60.333l297.458 297.479zM170.667 490.667h298.667v-64c0-11.792 9.542-21.333 21.333-21.333h90.5c5.667 0 11.083 2.25 15.083 6.25l79.091 79.083h135.326v-298.667h-640v298.667zM234.667 405.333h149.333c11.792 0 21.333 9.542 21.333 21.333s-9.542 21.333-21.333 21.333h-149.333c-11.792 0-21.333-9.542-21.333-21.333s9.542-21.333 21.333-21.333zM746.667 362.667h-512c-11.792 0-21.333-9.542-21.333-21.333s9.542-21.333 21.333-21.333h512c11.792 0 21.333 9.542 21.333 21.333s-9.542 21.333-21.333 21.333zM746.667 277.333h-106.667c-11.792 0-21.333-9.542-21.333-21.333s9.542-21.333 21.333-21.333h106.667c11.792 0 21.333 9.542 21.333 21.333s-9.542 21.333-21.333 21.333zM176.917 624.917c4.167-4.167 9.625-6.25 15.083-6.25s10.917 2.083 15.083 6.25l70.25 70.25 70.25-70.25c4.167-4.167 9.625-6.25 15.083-6.25s10.917 2.083 15.083 6.25c8.333 8.333 8.333 21.833 0 30.167l-70.25 70.25 70.25 70.25c8.333 8.333 8.333 21.833 0 30.167s-21.833 8.333-30.167 0l-70.25-70.25-70.25 70.25c-8.333 8.333-21.833 8.333-30.167 0s-8.333-21.833 0-30.167l70.25-70.25-70.25-70.25c-8.333-8.333-8.333-21.833 0-30.167zM896 469.333v-362.667h-704c-11.792 0-21.333-9.542-21.333-21.333s9.542-21.333 21.333-21.333h725.333c11.792 0 21.333 9.542 21.333 21.333v384c0 11.792-9.542 21.333-21.333 21.333s-21.333-9.542-21.333-21.333z" />
<glyph unicode="&#xe92c;" glyph-name="BAN011B_EXP" data-tags="BAN011B_EXP" d="M128 512v-341.333c0-11.792 9.542-21.333 21.333-21.333h682.667c11.792 0 21.333 9.542 21.333 21.333v341.333c0 11.792-9.542 21.333-21.333 21.333h-113.99l181.969 181.979c23.833 23.833 23.833 62.625 0 86.458l-34.208 34.208c-23.792 23.792-62.583 23.833-86.458 0l-302.646-302.646h-327.333c-11.792 0-21.333-9.542-21.333-21.333zM809.479 805.813c7.208 7.208 18.917 7.208 26.125 0l34.208-34.208c7.208-7.208 7.208-18.917 0-26.125l-297.479-297.479h-60.333v60.333l297.479 297.479zM170.667 490.667h298.667v-64c0-11.792 9.542-21.333 21.333-21.333h90.5c5.667 0 11.083 2.25 15.083 6.25l79.091 79.083h135.326v-298.667h-640v298.667zM234.667 405.333h149.333c11.792 0 21.333 9.542 21.333 21.333s-9.542 21.333-21.333 21.333h-149.333c-11.792 0-21.333-9.542-21.333-21.333s9.542-21.333 21.333-21.333zM746.667 362.667h-512c-11.792 0-21.333-9.542-21.333-21.333s9.542-21.333 21.333-21.333h512c11.792 0 21.333 9.542 21.333 21.333s-9.542 21.333-21.333 21.333zM746.667 277.333h-106.667c-11.792 0-21.333-9.542-21.333-21.333s9.542-21.333 21.333-21.333h106.667c11.792 0 21.333 9.542 21.333 21.333s-9.542 21.333-21.333 21.333zM938.667 469.333c0 11.792-9.542 21.333-21.333 21.333s-21.333-9.542-21.333-21.333v-362.667h-704c-11.792 0-21.333-9.542-21.333-21.333s9.542-21.333 21.333-21.333h725.333c11.792 0 21.333 9.542 21.333 21.333v384z" />
<glyph unicode="&#xe92d;" glyph-name="BAN012_EXP" data-tags="BAN012_EXP" d="M854.938 618.667h-65.604c-11.792 0-21.333-9.542-21.333-21.333s9.542-21.333 21.333-21.333h65.604c22.646 0 41.062-18.417 41.062-41.062v-172.271h-768v172.271c0 22.646 18.417 41.062 41.062 41.062h65.604c11.792 0 21.333 9.542 21.333 21.333s-9.542 21.333-21.333 21.333h-65.604c-46.167 0-83.729-37.563-83.729-83.729v-344.542c0-46.167 37.563-83.729 83.729-83.729h685.875c46.167 0 83.729 37.563 83.729 83.729v344.542c0 46.167-37.563 83.729-83.729 83.729zM896 320v-42.667h-768v42.667h768zM854.938 149.333h-685.875c-22.646 0-41.062 18.417-41.062 41.062v44.271h768v-44.271c0-22.646-18.417-41.062-41.062-41.062zM405.333 874.667c-11.792 0-21.333-9.542-21.333-21.333v-21.333h-1.771c-46.083 0-83.563-37.479-83.563-83.563v-216.875c0-46.083 37.479-83.563 83.563-83.563h259.542c46.083 0 83.563 37.479 83.563 83.563v216.875c0 46.083-37.479 83.563-83.563 83.563h-1.771v21.333c0 11.792-9.542 21.333-21.333 21.333s-21.333-9.542-21.333-21.333v-21.333h-170.667v21.333c0 11.792-9.542 21.333-21.333 21.333zM641.771 490.667h-259.542c-22.542 0-40.896 18.354-40.896 40.896v129.771h341.333v-129.771c0-22.542-18.354-40.896-40.896-40.896zM597.333 789.333v-21.333c0-11.792 9.542-21.333 21.333-21.333s21.333 9.542 21.333 21.333v21.333h1.771c22.542 0 40.896-18.354 40.896-40.896v-44.437h-341.333v44.437c0 22.542 18.354 40.896 40.896 40.896h1.771v-21.333c0-11.792 9.542-21.333 21.333-21.333s21.333 9.542 21.333 21.333v21.333h170.667z" />
<glyph unicode="&#xe92e;" glyph-name="BAN013_EXP" data-tags="BAN013_EXP" d="M854.938 618.667h-65.604c-11.792 0-21.333-9.542-21.333-21.333s9.542-21.333 21.333-21.333h65.604c22.646 0 41.062-18.417 41.062-41.062v-172.271h-768v172.271c0 22.646 18.417 41.062 41.062 41.062h65.604c11.792 0 21.333 9.542 21.333 21.333s-9.542 21.333-21.333 21.333h-65.604c-46.167 0-83.729-37.563-83.729-83.729v-344.542c0-46.167 37.563-83.729 83.729-83.729h685.875c46.167 0 83.729 37.563 83.729 83.729v344.542c0 46.167-37.563 83.729-83.729 83.729zM896 320v-42.667h-768v42.667h768zM854.938 149.333h-685.875c-22.646 0-41.062 18.417-41.062 41.062v44.271h768v-44.271c0-22.646-18.417-41.062-41.062-41.062zM512 789.333c-105.875 0-192-86.125-192-192s86.125-192 192-192 192 86.125 192 192-86.125 192-192 192zM512 448c-82.333 0-149.333 67-149.333 149.333s67 149.333 149.333 149.333 149.333-67 149.333-149.333-67-149.333-149.333-149.333zM597.333 618.667h-64v64c0 11.792-9.542 21.333-21.333 21.333s-21.333-9.542-21.333-21.333v-85.333c0-11.792 9.542-21.333 21.333-21.333h85.333c11.792 0 21.333 9.542 21.333 21.333s-9.542 21.333-21.333 21.333z" />
<glyph unicode="&#xe92f;" glyph-name="BAN014_EXP" data-tags="BAN014_EXP" d="M512 874.667c-11.792 0-21.333-9.542-21.333-21.333v-204.5l-91.583 91.583c-8.333 8.333-21.833 8.333-30.167 0s-8.333-21.833 0-30.167l128-128c4.167-4.167 9.625-6.25 15.083-6.25s10.917 2.083 15.083 6.25l128 128c8.333 8.333 8.333 21.833 0 30.167s-21.833 8.333-30.167 0l-91.583-91.583v204.5c0 11.792-9.542 21.333-21.333 21.333zM938.667 620.271c0 46.167-37.563 83.729-83.729 83.729h-65.604c-11.792 0-21.333-9.542-21.333-21.333s9.542-21.333 21.333-21.333h65.604c22.646 0 41.062-18.417 41.062-41.062v-344.542c0-22.646-18.417-41.063-41.062-41.063h-685.875c-22.646 0-41.062 18.417-41.062 41.062v344.542c0 22.646 18.417 41.062 41.062 41.062h65.604c11.792 0 21.333 9.542 21.333 21.333s-9.542 21.333-21.333 21.333h-65.604c-46.167 0-83.729-37.563-83.729-83.729v-344.542c0-46.167 37.563-83.729 83.729-83.729h685.875c46.167 0 83.729 37.563 83.729 83.729v344.542zM341.958 522.312h-107.292c-11.792 0-21.333-9.542-21.333-21.333v-105.958c0-11.792 9.542-21.333 21.333-21.333h107.292c11.792 0 21.333 9.542 21.333 21.333v105.958c0 11.792-9.542 21.333-21.333 21.333zM320.625 416.354h-64.625v63.292h64.625v-63.292z" />
<glyph unicode="&#xe930;" glyph-name="BAN015_EXP" data-tags="BAN015_EXP" d="M672.583 871.458c-6.271 3.896-14.062 4.271-20.708 1l-75.125-37.146-52.458 35.667c-7.125 4.854-16.521 4.917-23.729 0.167l-54.458-35.875-73.854 37.125c-6.625 3.333-14.479 2.979-20.771-0.896-6.312-3.896-10.146-10.771-10.146-18.167v-106.667h-106.667c-11.792 0-21.333-9.542-21.333-21.333v-544.271c0-88.083 71.646-159.729 159.729-159.729h277.875c88.083 0 159.729 71.646 159.729 159.729v544.271c0 11.792-9.542 21.333-21.333 21.333h-106.667v106.667c0 7.375-3.813 14.229-10.083 18.125zM384 818.729l53.958-27.125c6.813-3.458 14.979-2.958 21.312 1.25l52.833 34.813 50.938-34.646c6.396-4.333 14.563-4.938 21.458-1.479l55.5 27.437v-157.646h-256v157.396zM768 704v-522.938c0-64.542-52.521-117.062-117.062-117.062h-277.875c-64.542 0-117.062 52.521-117.062 117.062v522.938h85.333v-42.667h-21.333c-11.792 0-21.333-9.542-21.333-21.333s9.542-21.333 21.333-21.333h384c11.792 0 21.333 9.542 21.333 21.333s-9.542 21.333-21.333 21.333h-21.333v42.667h85.333zM661.333 576h-298.667c-11.792 0-21.333-9.542-21.333-21.333v-170.667c0-11.792 9.542-21.333 21.333-21.333h298.667c11.792 0 21.333 9.542 21.333 21.333v170.667c0 11.792-9.542 21.333-21.333 21.333zM640 405.333h-256v128h256v-128zM405.333 320h-42.667c-11.792 0-21.333-9.542-21.333-21.333s9.542-21.333 21.333-21.333h42.667c11.792 0 21.333 9.542 21.333 21.333s-9.542 21.333-21.333 21.333zM533.333 320h-42.667c-11.792 0-21.333-9.542-21.333-21.333s9.542-21.333 21.333-21.333h42.667c11.792 0 21.333 9.542 21.333 21.333s-9.542 21.333-21.333 21.333zM405.333 234.667h-42.667c-11.792 0-21.333-9.542-21.333-21.333s9.542-21.333 21.333-21.333h42.667c11.792 0 21.333 9.542 21.333 21.333s-9.542 21.333-21.333 21.333zM533.333 234.667h-42.667c-11.792 0-21.333-9.542-21.333-21.333s9.542-21.333 21.333-21.333h42.667c11.792 0 21.333 9.542 21.333 21.333s-9.542 21.333-21.333 21.333zM405.333 149.333h-42.667c-11.792 0-21.333-9.542-21.333-21.333s9.542-21.333 21.333-21.333h42.667c11.792 0 21.333 9.542 21.333 21.333s-9.542 21.333-21.333 21.333zM533.333 149.333h-42.667c-11.792 0-21.333-9.542-21.333-21.333s9.542-21.333 21.333-21.333h42.667c11.792 0 21.333 9.542 21.333 21.333s-9.542 21.333-21.333 21.333zM661.333 320h-42.667c-11.792 0-21.333-9.542-21.333-21.333s9.542-21.333 21.333-21.333h42.667c11.792 0 21.333 9.542 21.333 21.333s-9.542 21.333-21.333 21.333zM661.333 234.667h-42.667c-11.792 0-21.333-9.542-21.333-21.333s9.542-21.333 21.333-21.333h42.667c11.792 0 21.333 9.542 21.333 21.333s-9.542 21.333-21.333 21.333zM661.333 149.333h-42.667c-11.792 0-21.333-9.542-21.333-21.333s9.542-21.333 21.333-21.333h42.667c11.792 0 21.333 9.542 21.333 21.333s-9.542 21.333-21.333 21.333z" />
<glyph unicode="&#xe931;" glyph-name="BAN016_EXP" data-tags="BAN016_EXP" d="M854.958 704h-65.625c-11.792 0-21.333-9.542-21.333-21.333s9.542-21.333 21.333-21.333h65.625c22.625 0 41.042-18.417 41.042-41.062v-172.271h-768v172.271c0 22.646 18.417 41.062 41.042 41.062h65.625c11.792 0 21.333 9.542 21.333 21.333s-9.542 21.333-21.333 21.333h-65.625c-46.167 0-83.708-37.563-83.708-83.729v-344.542c0-46.167 37.542-83.729 83.708-83.729h685.917c46.167 0 83.708 37.563 83.708 83.729v344.542c0 46.167-37.542 83.729-83.708 83.729zM896 405.333v-42.667h-768v42.667h768zM854.958 234.667h-685.917c-22.625 0-41.042 18.417-41.042 41.062v44.271h768v-44.271c0-22.646-18.417-41.062-41.042-41.062zM704 682.667c0 78.5-47 148.333-119.708 177.917-10.917 4.417-23.375-0.833-27.792-11.729-4.458-10.917 0.792-23.375 11.708-27.813 56.583-22.979 93.125-77.313 93.125-138.375 0-49.091-24.445-94.365-63.75-122.010v79.344c0 11.792-9.542 21.333-21.333 21.333s-21.333-9.542-21.333-21.333v-128c0-11.792 9.542-21.333 21.333-21.333h128c11.792 0 21.333 9.542 21.333 21.333s-9.542 21.333-21.333 21.333h-72.19c44.589 35.948 71.94 90.505 71.94 149.333zM446.792 704c11.792 0 21.333 9.542 21.333 21.333v128c0 11.792-9.542 21.333-21.333 21.333h-128c-11.792 0-21.333-9.542-21.333-21.333s9.542-21.333 21.333-21.333h72.586c-45.055-36.263-71.378-90.523-71.378-149.333 0-77.333 46.042-146.771 117.292-176.896 2.708-1.146 5.5-1.688 8.292-1.688 8.292 0 16.208 4.896 19.667 13.021 4.583 10.854-0.5 23.375-11.375 27.958-55.417 23.438-91.208 77.438-91.208 137.604 0 48.76 23.424 93.302 62.792 121.378v-78.711c0-11.792 9.542-21.333 21.333-21.333z" />
<glyph unicode="&#xe932;" glyph-name="BAN017_EXP" data-tags="BAN017_EXP" d="M917.333 661.333h-170.667c-11.792 0-21.333-9.542-21.333-21.333v-53.82l-148.25 59.299c-27.375 10.917-55.625 22.271-94.417 8.417l-68.854-35.229h-115.146v21.333c0 11.792-9.542 21.333-21.333 21.333h-170.667c-11.792 0-21.333-9.542-21.333-21.333v-277.917c0-46.729 38-84.75 84.75-84.75h107.25c11.792 0 21.333 9.542 21.333 21.333v43.453l69.958-50.87c42.875-31.188 93.125-46.792 143.375-46.792s100.5 15.604 143.375 46.792l66.281 48.195 3.677-3.307v-37.471c0-11.792 9.542-21.333 21.333-21.333h107.25c46.75 0 84.75 38.021 84.75 84.75v277.917c0 11.792-9.542 21.333-21.333 21.333zM499.458 614.771c19.875 6.958 35.708 1.521 61.792-8.917l164.083-65.633v-145.365l-0.828-0.602-185.339 166.62c-6.167 5.521-14.958 7.021-22.708 3.708-1.167-0.5-29.75-12.875-77.917-38.938-19.833-10.708-43.917-14.771-51.542-1.771-3.167 5.333-4.042 10.521-2.667 15.854 2.667 10.375 13.542 21.625 29.417 31.021l85.708 44.021zM256 320h-85.917c-23.208 0-42.083 18.875-42.083 42.083v256.583h128v-298.667zM630.292 325.75c-70.75-51.458-165.833-51.458-236.583 0l-95.042 69.107v181.143h57.552c-6.13-8.18-10.885-16.698-13.177-25.625-4.25-16.396-1.75-33.062 7.208-48.208 19.5-32.979 63.083-38.688 108.625-14.063 28.292 15.333 49.75 25.813 62.167 31.667l168.18-151.172-58.93-42.849zM896 362.083c0-23.208-18.875-42.083-42.083-42.083h-85.917v298.667h128v-256.583z" />
<glyph unicode="&#xe933;" glyph-name="BAN018_EXP" data-tags="BAN018_EXP" d="M917.333 661.333h-106.667v106.667c0 11.792-9.542 21.333-21.333 21.333h-682.667c-11.792 0-21.333-9.542-21.333-21.333v-469.333c0-11.792 9.542-21.333 21.333-21.333h106.667v-106.667c0-11.792 9.542-21.333 21.333-21.333h682.667c11.792 0 21.333 9.542 21.333 21.333v469.333c0 11.792-9.542 21.333-21.333 21.333zM770.156 192h-388.312c-9.445 65.148-60.695 116.398-125.844 125.844v174.979c65.148 9.445 116.398 60.695 125.844 125.844h388.312c9.445-65.148 60.695-116.398 125.844-125.844v-174.979c-65.148-9.445-116.398-60.695-125.844-125.844zM256 535.492v83.174h83.177c-8.505-41.732-41.437-74.669-83.177-83.174zM896 535.492c-41.74 8.505-74.672 41.443-83.177 83.174h83.177v-83.174zM128 746.667h640v-85.333h-533.333c-11.792 0-21.333-9.542-21.333-21.333v-320h-85.333v426.667zM256 275.174c41.74-8.505 74.672-41.443 83.177-83.174h-83.177v83.174zM812.823 192c8.505 41.732 41.437 74.669 83.177 83.174v-83.174h-83.177z" />
<glyph unicode="&#xe934;" glyph-name="BAN019_EXP" data-tags="BAN019_EXP" d="M661.333 576c-35.292 0-64-28.708-64-64 0-27.776 17.888-51.234 42.667-60.070v-67.93c0-11.792 9.542-21.333 21.333-21.333s21.333 9.542 21.333 21.333v67.93c24.779 8.836 42.667 32.294 42.667 60.070 0 35.292-28.708 64-64 64zM661.333 490.667c-11.75 0-21.333 9.563-21.333 21.333s9.583 21.333 21.333 21.333 21.333-9.563 21.333-21.333-9.583-21.333-21.333-21.333zM448 576c-58.833 0-106.667-47.854-106.667-106.667s47.833-106.667 106.667-106.667 106.667 47.854 106.667 106.667-47.833 106.667-106.667 106.667zM448 405.333c-35.292 0-64 28.708-64 64s28.708 64 64 64 64-28.708 64-64-28.708-64-64-64zM149.333 405.333c-11.792 0-21.333-9.542-21.333-21.333s9.542-21.333 21.333-21.333h21.333v-154.458c0-56 45.542-101.542 101.542-101.542h26.458v-21.333c0-11.792 9.542-21.333 21.333-21.333s21.333 9.542 21.333 21.333v21.333h384v-21.333c0-11.792 9.542-21.333 21.333-21.333s21.333 9.542 21.333 21.333v21.333h26.458c56 0 101.542 45.542 101.542 101.542v522.25c0 56-45.542 101.542-101.542 101.542h-522.25c-56 0-101.542-45.542-101.542-101.542v-154.458h-21.333c-11.792 0-21.333-9.542-21.333-21.333s9.542-21.333 21.333-21.333h21.333v-128h-21.333zM213.333 730.458c0 32.458 26.417 58.875 58.875 58.875h522.25c32.458 0 58.875-26.417 58.875-58.875v-522.25c0-32.458-26.417-58.875-58.875-58.875h-522.25c-32.458 0-58.875 26.417-58.875 58.875v154.458h42.667v-149.333c0-11.792 9.542-21.333 21.333-21.333h512c11.792 0 21.333 9.542 21.333 21.333v512c0 11.792-9.542 21.333-21.333 21.333h-512c-11.792 0-21.333-9.542-21.333-21.333v-149.333h-42.667v154.458zM298.667 704h469.333v-469.333h-469.333v469.333zM213.333 533.333h42.667v-128h-42.667v128z" />
<glyph unicode="&#xe935;" glyph-name="BAN020_EXP" data-tags="BAN020_EXP" d="M169.042 192h643.25c46.167 0 83.708 37.563 83.708 83.729v344.542c0 46.167-37.542 83.729-83.708 83.729h-65.625c-11.792 0-21.333-9.542-21.333-21.333s9.542-21.333 21.333-21.333h65.625c22.625 0 41.042-18.417 41.042-41.062v-172.271h-725.333v172.271c0 22.646 18.417 41.062 41.042 41.062h65.625c11.792 0 21.333 9.542 21.333 21.333s-9.542 21.333-21.333 21.333h-65.625c-46.167 0-83.708-37.563-83.708-83.729v-344.542c0-46.167 37.542-83.729 83.708-83.729zM812.292 234.667h-643.25c-22.625 0-41.042 18.417-41.042 41.062v44.271h725.333v-44.271c0-22.646-18.417-41.062-41.042-41.062zM853.333 405.333v-42.667h-725.333v42.667h725.333zM490.667 533.333c11.792 0 21.333 9.542 21.333 21.333v204.5l91.583-91.583c4.167-4.167 9.625-6.25 15.083-6.25s10.917 2.083 15.083 6.25c8.333 8.333 8.333 21.833 0 30.167l-128 128c-8.333 8.333-21.833 8.333-30.167 0l-128-128c-8.333-8.333-8.333-21.833 0-30.167s21.833-8.333 30.167 0l91.583 91.583v-204.5c0-11.792 9.542-21.333 21.333-21.333z" />
<glyph unicode="&#xe936;" glyph-name="BAN021_EXP" data-tags="BAN021_EXP" d="M112.542 340.958c1.458-5.458 5.042-10.125 9.938-12.958l90.854-52.437v-104.896c0-11.792 9.542-21.333 21.333-21.333h104.896l52.437-90.854c2.833-4.896 7.5-8.479 12.958-9.938 5.437-1.396 11.271-0.667 16.187 2.125l90.854 52.479 90.854-52.479c3.271-1.875 6.958-2.854 10.667-2.854 1.854 0 3.708 0.25 5.521 0.729 5.458 1.458 10.125 5.042 12.958 9.938l52.438 90.854h104.896c11.792 0 21.333 9.542 21.333 21.333v104.896l90.854 52.437c4.896 2.833 8.479 7.5 9.938 12.958s0.708 11.292-2.125 16.187l-52.479 90.854 52.479 90.854c2.833 4.896 3.583 10.729 2.125 16.187s-5.042 10.125-9.938 12.958l-90.854 52.437v104.896c0 11.792-9.542 21.333-21.333 21.333h-104.896l-52.437 90.854c-2.833 4.896-7.5 8.479-12.958 9.938-5.458 1.437-11.271 0.688-16.188-2.125l-90.854-52.479-90.854 52.479c-4.917 2.813-10.75 3.563-16.188 2.125-5.458-1.458-10.125-5.042-12.958-9.938l-52.437-90.854h-104.896c-11.792 0-21.333-9.542-21.333-21.333v-104.896l-90.854-52.437c-4.896-2.833-8.479-7.5-9.938-12.958s-0.708-11.292 2.125-16.188l52.479-90.854-52.479-90.854c-2.833-4.896-3.583-10.729-2.125-16.188zM210.25 437.333c3.813 6.604 3.813 14.729 0 21.333l-47.958 83.042 83.042 47.937c6.604 3.813 10.667 10.854 10.667 18.479v95.875h95.875c7.625 0 14.667 4.062 18.479 10.667l47.938 83.042 83.042-47.958c6.583-3.792 14.75-3.792 21.333 0l83.042 47.958 47.937-83.042c3.813-6.604 10.854-10.667 18.479-10.667h95.875v-95.875c0-7.625 4.062-14.667 10.667-18.479l83.042-47.938-47.958-83.042c-3.813-6.604-3.813-14.729 0-21.333l47.958-83.042-83.042-47.937c-6.604-3.813-10.667-10.854-10.667-18.479v-95.875h-95.875c-7.625 0-14.667-4.062-18.479-10.667l-47.938-83.042-83.042 47.958c-3.292 1.896-6.979 2.854-10.667 2.854s-7.375-0.958-10.667-2.854l-83.042-47.958-47.937 83.042c-3.813 6.604-10.854 10.667-18.479 10.667h-95.875v95.875c0 7.625-4.062 14.667-10.667 18.479l-83.042 47.938 47.958 83.042zM347.583 283.583c4.167-4.167 9.625-6.25 15.083-6.25s10.917 2.083 15.083 6.25l298.667 298.667c8.333 8.333 8.333 21.833 0 30.167s-21.833 8.333-30.167 0l-298.667-298.667c-8.333-8.333-8.333-21.833 0-30.167zM384 448c47.062 0 85.333 38.271 85.333 85.333v42.667c0 47.062-38.271 85.333-85.333 85.333s-85.333-38.271-85.333-85.333v-42.667c0-47.062 38.271-85.333 85.333-85.333zM341.333 576c0 23.521 19.146 42.667 42.667 42.667s42.667-19.146 42.667-42.667v-42.667c0-23.521-19.146-42.667-42.667-42.667s-42.667 19.146-42.667 42.667v42.667zM554.667 362.667v-42.667c0-47.062 38.271-85.333 85.333-85.333s85.333 38.271 85.333 85.333v42.667c0 47.062-38.271 85.333-85.333 85.333s-85.333-38.271-85.333-85.333zM682.667 362.667v-42.667c0-23.521-19.146-42.667-42.667-42.667s-42.667 19.146-42.667 42.667v42.667c0 23.521 19.146 42.667 42.667 42.667s42.667-19.146 42.667-42.667z" />
<glyph unicode="&#xe937;" glyph-name="BAN023_EXP" data-tags="BAN023_EXP" d="M309.333 874.667c-123.521 0-224-100.479-224-224s100.479-224 224-224 224 100.479 224 224-100.479 224-224 224zM309.333 469.333c-99.979 0-181.333 81.354-181.333 181.333s81.354 181.333 181.333 181.333 181.333-81.354 181.333-181.333-81.354-181.333-181.333-181.333zM714.667 469.333c-123.521 0-224-100.479-224-224s100.479-224 224-224 224 100.479 224 224-100.479 224-224 224zM714.667 64c-99.979 0-181.333 81.354-181.333 181.333s81.354 181.333 181.333 181.333 181.333-81.354 181.333-181.333-81.354-181.333-181.333-181.333zM378.333 228.312c-8.312 8.375-21.813 8.417-30.167 0.083-8.354-8.312-8.396-21.813-0.083-30.167l49.706-49.997c-126.016 4.839-227.122 108.591-227.122 235.768 0 11.792-9.542 21.333-21.333 21.333s-21.333-9.542-21.333-21.333c0-150.875 120.482-273.836 270.255-278.458l-48.068-47.75c-8.354-8.292-8.396-21.792-0.083-30.167 4.167-4.188 9.646-6.292 15.125-6.292 5.437 0 10.875 2.062 15.042 6.187l84.333 83.792c4 3.979 6.271 9.396 6.292 15.062s-2.208 11.083-6.208 15.104l-86.354 86.833zM674 868.583c-8.312 8.375-21.813 8.396-30.167 0.104l-84.333-83.792c-4-3.979-6.271-9.396-6.292-15.062-0.021-5.646 2.208-11.083 6.208-15.104l86.333-86.833c4.167-4.187 9.646-6.292 15.125-6.292 5.437 0 10.875 2.062 15.042 6.208 8.354 8.312 8.396 21.813 0.083 30.167l-49.724 50c126.031-4.82 227.161-108.581 227.161-235.771 0-11.792 9.542-21.333 21.333-21.333s21.333 9.542 21.333 21.333c0 150.875-120.482 273.836-270.255 278.458l48.068 47.75c8.354 8.292 8.396 21.792 0.083 30.167zM726.396 263.833c-30.729 12.146-50.854 21.25-50.854 36.333 0 12.187 17.375 19.458 34.187 19.458 24.917 0 49.021-14.187 49.271-14.333 10.083-6 23.208-2.75 29.229 7.333 6.062 10.083 2.854 23.125-7.208 29.208-1.044 0.633-20.326 12.086-45.771 17.563v16.542c0 11.792-9.542 21.333-21.333 21.333s-21.333-9.542-21.333-21.333v-15.086c-35.427-5.81-59.708-29.508-59.708-60.685 0-45.229 43.146-62.292 77.833-76 27.167-10.75 46.417-19.229 46.417-30.5 0-19.604-27.5-22.542-43.896-22.542-32.667 0-46.792 12.875-47.021 13.062-8.104 8.479-21.667 8.688-30.146 0.542-8.479-8.187-8.708-21.708-0.542-30.167 2.203-2.292 20.227-19.544 57.062-24.612v-15.221c0-11.792 9.542-21.333 21.333-21.333s21.333 9.542 21.333 21.333v15.234c47.12 6.872 64.542 36.12 64.542 63.703 0 41.146-40.708 57.25-73.396 70.167zM318.667 788.75c-58.544 0-100.102-30.906-120.352-89.271h-15.378c-11.792 0-21.333-9.542-21.333-21.333s9.542-21.333 21.333-21.333h147.146c11.792 0 21.333 9.542 21.333 21.333s-9.542 21.333-21.333 21.333h-84.826c15.018 31 38.318 46.604 73.409 46.604 24.792 0 36.813-7.187 56.604-22.437 9.292-7.208 22.708-5.437 29.917 3.875 7.187 9.333 5.458 22.729-3.875 29.917-22.208 17.125-43.771 31.312-82.646 31.312zM375.271 577.688c-19.792-15.25-31.813-22.437-56.604-22.437-30.029 0-51.721 10.852-66.797 33.354h78.214c11.792 0 21.333 9.542 21.333 21.333s-9.542 21.333-21.333 21.333h-147.146c-11.792 0-21.333-9.542-21.333-21.333s9.542-21.333 21.333-21.333h20.794c21.75-49.635 61.065-76.021 114.935-76.021 38.875 0 60.437 14.187 82.646 31.312 9.333 7.187 11.062 20.583 3.875 29.917-7.167 9.333-20.604 11.083-29.917 3.875z" />
<glyph unicode="&#xe938;" glyph-name="BAN024_EXP" data-tags="BAN024_EXP" d="M494.979 749.167c-11.792 0-21.333-9.542-21.333-21.333v-67.875c-67.143-8.448-113.5-47.422-113.5-98.979 0-74.896 81.312-103.917 153.062-129.521 59.229-21.146 115.167-41.104 115.167-77.958 0-57.917-83.563-64.167-119.5-64.167-82.792 0-119.813 32.25-120.021 32.417-8.583 8.062-22.062 7.646-30.146-1.021-8.042-8.604-7.583-22.104 1.021-30.146 1.677-1.568 37.318-34.036 113.917-42.109v-67.37c0-11.792 9.542-21.333 21.333-21.333s21.333 9.542 21.333 21.333v65.943c96.862 1.997 154.729 41.279 154.729 106.453 0 66.938-72.938 92.958-143.479 118.146-75.354 26.875-124.75 47.625-124.75 89.333 0 37.75 50.75 58.125 98.521 58.125 61.521 0 119.271-30.938 119.854-31.25 10.354-5.583 23.292-1.771 28.917 8.563s1.813 23.271-8.5 28.917c-2.539 1.375-58.982 31.359-125.292 35.596v66.904c0 11.792-9.542 21.333-21.333 21.333zM444.833 873.604c-175.583-29.958-326.042-178.896-357.792-354.167-2.083-11.583 5.604-22.688 17.208-24.792 1.271-0.229 2.563-0.333 3.813-0.333 10.125 0 19.104 7.229 20.979 17.542 28.646 158.187 164.479 292.646 322.958 319.708 11.625 1.979 19.437 13 17.437 24.604-1.958 11.583-12.896 19.458-24.604 17.437zM580.312 875.292c-11.833 2.042-22.688-5.604-24.813-17.208-2.083-11.583 5.604-22.688 17.187-24.792 158.208-28.646 292.667-164.479 319.729-322.958 1.771-10.396 10.792-17.75 21-17.75 1.187 0 2.396 0.104 3.604 0.312 11.625 1.979 19.437 13 17.437 24.604-29.958 175.583-178.896 326.042-354.146 357.792zM892.437 386.187c-28.646-158.208-164.479-292.667-322.958-319.729-11.625-1.979-19.437-13-17.437-24.604 1.771-10.396 10.792-17.75 21-17.75 1.187 0 2.396 0.104 3.604 0.312 175.583 29.958 326.042 178.917 357.792 354.187 2.083 11.583-5.604 22.688-17.208 24.792-11.479 2.063-22.688-5.604-24.792-17.208zM441.187 22.729c1.271-0.229 2.563-0.333 3.813-0.333 10.125 0 19.104 7.229 20.979 17.542 2.083 11.583-5.604 22.688-17.208 24.792-158.187 28.646-292.646 164.479-319.708 322.958-1.958 11.604-13 19.312-24.604 17.437-11.625-1.979-19.437-13-17.437-24.604 29.958-175.583 178.896-326.042 354.167-357.792z" />
<glyph unicode="&#xe939;" glyph-name="BAN024B_EXP" data-tags="BAN024B_EXP" d="M444.833 873.604c-175.583-29.958-326.042-178.896-357.792-354.167-2.083-11.583 5.604-22.688 17.208-24.792 1.271-0.229 2.563-0.333 3.813-0.333 10.125 0 19.104 7.229 20.979 17.542 28.646 158.187 164.479 292.646 322.958 319.708 11.625 1.979 19.437 13 17.437 24.604-1.958 11.583-13 19.458-24.604 17.437zM580.312 875.292c-11.75 2.042-22.708-5.604-24.813-17.208-2.083-11.583 5.604-22.688 17.187-24.792 158.208-28.646 292.667-164.479 319.729-322.958 1.771-10.396 10.792-17.75 21-17.75 1.187 0 2.396 0.104 3.604 0.312 11.625 1.979 19.437 13 17.437 24.604-29.958 175.583-178.896 326.042-354.146 357.792zM573.042 24.104c1.187 0 2.396 0.104 3.604 0.312 175.583 29.958 326.042 178.917 357.792 354.187 2.083 11.583-5.604 22.688-17.208 24.792-11.583 2.062-22.688-5.604-24.792-17.208-28.646-158.208-164.479-292.667-322.958-319.729-11.625-1.979-19.437-13-17.437-24.604 1.771-10.396 10.792-17.75 21-17.75zM441.187 22.729c1.271-0.229 2.563-0.333 3.813-0.333 10.125 0 19.104 7.229 20.979 17.542 2.083 11.583-5.604 22.688-17.208 24.792-158.187 28.646-292.646 164.479-319.708 322.958-1.979 11.604-12.896 19.312-24.604 17.437-11.625-1.979-19.437-13-17.437-24.604 29.958-175.583 178.896-326.042 354.167-357.792zM597.333 384c0 11.792-9.542 21.333-21.333 21.333h-287.099c-0.247 0.034-0.503-0.026-0.753 0h-53.482c-11.792 0-21.333-9.542-21.333-21.333s9.542-21.333 21.333-21.333h36.797c35.93-101.055 132.065-170.667 240.536-170.667 83.271 0 161.625 40.729 209.583 108.938 6.771 9.646 4.458 22.938-5.187 29.729-9.646 6.813-22.917 4.417-29.729-5.187-39.958-56.875-105.271-90.813-174.667-90.813-85.268 0-161.573 51.5-195.122 128h259.122c11.792 0 21.333 9.542 21.333 21.333zM271.398 533.333h-36.732c-11.792 0-21.333-9.542-21.333-21.333s9.542-21.333 21.333-21.333h341.333c11.792 0 21.333 9.542 21.333 21.333s-9.542 21.333-21.333 21.333h-259.036c33.583 76.383 110.023 128 195.036 128 68.125 0 132.729-32.979 172.813-88.229 6.917-9.542 20.292-11.708 29.792-4.75 9.542 6.917 11.667 20.25 4.75 29.792-48.083 66.292-125.604 105.854-207.354 105.854-108.177 0-204.68-69.711-240.602-170.667z" />
<glyph unicode="&#xe93a;" glyph-name="BAN024C_EXP" data-tags="BAN024C_EXP" d="M87.042 519.437c-2.083-11.583 5.604-22.688 17.208-24.792 1.271-0.229 2.563-0.333 3.813-0.333 10.125 0 19.104 7.229 20.979 17.542 28.646 158.188 164.479 292.646 322.958 319.708 11.625 1.979 19.437 13 17.437 24.604-1.979 11.583-12.917 19.458-24.604 17.437-175.583-29.958-326.042-178.896-357.792-354.167zM580.312 875.292c-11.667 2.042-22.708-5.604-24.813-17.208-2.083-11.583 5.604-22.688 17.187-24.792 158.208-28.646 292.667-164.479 319.729-322.958 1.771-10.396 10.792-17.75 21-17.75 1.187 0 2.396 0.104 3.604 0.312 11.625 1.979 19.437 13 17.437 24.604-29.958 175.583-178.896 326.042-354.146 357.792zM917.229 403.396c-11.5 2.062-22.688-5.604-24.792-17.208-28.646-158.208-164.479-292.667-322.958-319.729-11.625-1.979-19.437-13-17.437-24.604 1.771-10.396 10.792-17.75 21-17.75 1.187 0 2.396 0.104 3.604 0.312 175.583 29.958 326.042 178.917 357.792 354.187 2.083 11.583-5.604 22.688-17.208 24.792zM441.187 22.729c1.271-0.229 2.563-0.333 3.813-0.333 10.125 0 19.104 7.229 20.979 17.542 2.083 11.583-5.604 22.688-17.208 24.792-158.187 28.646-292.646 164.479-319.708 322.958-1.958 11.604-13 19.312-24.604 17.437-11.625-1.979-19.437-13-17.437-24.604 29.958-175.583 178.896-326.042 354.167-357.792zM309 274.292c-8.187-4.958-12.104-14.771-9.542-24 2.583-9.229 10.958-15.625 20.542-15.625h331.979c11.792 0 21.333 9.542 21.333 21.333s-9.542 21.333-21.333 21.333h-273.854c19.292 21.437 37.146 50.625 37.146 85.167v85.5h96.729c11.792 0 21.333 9.542 21.333 21.333s-9.542 21.333-21.333 21.333h-96.729v72.229c0 52.333 12.917 100.771 106.667 100.771 71.854 0 114.708-40.583 115.146-41 4.146-4.042 9.521-6.062 14.896-6.062 5.5 0 11.021 2.125 15.187 6.354 8.271 8.396 8.187 21.896-0.208 30.167-2.208 2.167-55 53.208-145.021 53.208-99.083 0-149.333-48.25-149.333-143.437v-72.229h-52.604c-11.792 0-21.333-9.542-21.333-21.333s9.542-21.333 21.333-21.333h52.604v-85.5c0-49.229-62.958-87.833-63.604-88.208z" />
<glyph unicode="&#xe93b;" glyph-name="BAN025_EXP" data-tags="BAN025_EXP" d="M320 405.333h-170.667c-11.792 0-21.333-9.542-21.333-21.333v-221.792c0-54.146 44.042-98.208 98.208-98.208h93.792c11.792 0 21.333 9.542 21.333 21.333v22.362l137.708-34.383c21.583-7.271 50.292-10.729 80.083-10.729 45.417 0 93.25 8.021 121.875 22.792l181.375 93.958c33.917 22.167 44.875 59.146 27.917 94.208-7.375 15.229-19.792 26.146-35.917 31.542-18.125 6.104-39.708 4.292-56.875-4.458l-73.216-34.234c-5.003 30.339-31.216 53.609-62.951 53.609h-140.5c-13.75 0-26.667 5.354-36.417 15.083-17.792 17.792-41.417 27.583-66.583 27.583h-76.5v21.333c0 11.792-9.542 21.333-21.333 21.333zM298.667 106.667h-72.458c-30.625 0-55.542 24.917-55.542 55.542v200.458h128v-256zM417.833 320c13.75 0 26.667-5.354 36.417-15.083 17.792-17.792 41.417-27.583 66.583-27.583h140.5c11.75 0 21.333-9.563 21.333-21.333s-9.583-21.333-21.333-21.333h-128c-11.792 0-21.333-9.542-21.333-21.333s9.542-21.333 21.333-21.333h128c17.813 0 33.917 7.341 45.529 19.122l109.388 51.169c7.583 3.896 17.25 4.792 24.583 2.354 5.125-1.729 8.708-4.896 11.042-9.688 9.583-19.792-1.708-32.625-10.958-38.833l-179.458-92.854c-37.167-19.146-125.458-24.104-170.458-9.062l-149.667 37.435v168.357h76.5zM388.375 533.5c0-63.25 33.792-138.625 194.75-138.625s194.75 75.375 194.75 138.625c0 82.294-36.901 157.977-99.927 208.198 23.357 18.451 53.177 49.25 53.177 86.969 0 20.688-9.208 31.896-16.917 37.667-23.375 17.521-59.25 6.875-93.958-3.312-13.875-4.083-31.625-8.062-37.292-8.667-6.542 0.542-23.167 4.583-37.125 8.688-34.625 10.187-70.583 20.729-93.792 3.312-7.708-5.771-16.917-17-16.917-37.688 0-37.737 29.849-68.458 53.216-86.906-63.039-50.24-99.966-125.956-99.966-208.26zM735.208 533.5c0-41.187-15.75-95.958-152.083-95.958s-152.083 54.771-152.083 95.958c0 76.284 37.794 145.745 101.078 187.187h101.943c63.305-41.422 101.146-110.872 101.146-187.187zM477.917 832.333c8.583 3.688 40.417-5.708 55.875-10.229 19-5.583 35.458-10.417 48.792-10.417 0.292-0.042 0.583-0.021 0.792 0 13.583 0 29.958 4.813 48.917 10.396 15.833 4.667 48.708 14.312 55.625 10.917 0 0 0.542-1.146 0.542-4.333 0-25.958-35.792-54.021-53.542-65.312h-103.583c-17.75 11.292-53.542 39.354-53.542 65.312 0 2.146 0.25 3.354 0.125 3.667z" />
<glyph unicode="&#xe93c;" glyph-name="BAN026_EXP" data-tags="BAN026_EXP" d="M106.667 362.667h106.667v-106.667c0-11.792 9.542-21.333 21.333-21.333h256c11.792 0 21.333 9.542 21.333 21.333s-9.542 21.333-21.333 21.333h-110.888c-9.333 64.688-59.695 115.57-123.779 125.073v135.159c64.609 9.362 115.214 59.841 123.94 123.768h304.732c8.865-64.021 60.346-114.544 125.995-123.797v-68.203c0-11.792 9.542-21.333 21.333-21.333s21.333 9.542 21.333 21.333v213.333c0 11.792-9.542 21.333-21.333 21.333h-106.667v106.667c0 11.792-9.542 21.333-21.333 21.333h-597.333c-11.792 0-21.333-9.542-21.333-21.333v-426.667c0-11.792 9.542-21.333 21.333-21.333zM337.117 277.333h-81.117v82.339c40.667-8.576 72.76-41.117 81.117-82.339zM256 580.276v81.057h81.263c-7.914-40.526-40.143-72.667-81.263-81.057zM810.667 580.177c-42.154 8.253-75.211 40.49-83.307 81.156h83.307v-81.156zM128 789.333h554.667v-85.333h-448c-11.792 0-21.333-9.542-21.333-21.333v-277.333h-85.333v384zM896 256c0 11.792-9.542 21.333-21.333 21.333h-42.667v66.417c0 39.021-20.917 74.875-53.333 91.333-36.458 18.542-76.208 17.604-109.042-2.437-31.917-19.563-50.958-53.583-50.958-90.979v-64.333h-42.667c-11.792 0-21.333-9.542-21.333-21.333v-101.354c0-49.979 40.667-90.646 90.667-90.646h160.042c49.958 0 90.625 40.667 90.625 90.646v101.354zM661.333 341.667c0 22.437 11.458 42.854 30.625 54.604 19.833 12.25 44.417 12.437 67.375 0.771 18.208-9.25 30-30.167 30-53.292v-66.417h-128v64.333zM853.333 154.646c0-26.458-21.5-47.979-47.958-47.979h-160.042c-26.458 0-48 21.521-48 47.979v80.021h256v-80.021z" />
<glyph unicode="&#xe93d;" glyph-name="BAN027_EXP" data-tags="BAN027_EXP" d="M127.875 136.417c0-39.396 32.042-71.458 71.458-71.458l625.458-0.083c39.417 0 71.458 32.062 71.458 71.458v30.062c0 1.122-0.422 2.128-0.458 3.24 0.018 0.362 0.208 0.667 0.208 1.031 0 2.081-0.628 3.961-1.182 5.862-7.372 71.276-89.674 122.201-202.359 122.201-37.833 0-84.125-9.167-116.292-16.854l-18.333-4.667c-16.5-4.292-35.167-9.187-45.833-9.187-11.125 0-22.625 3.146-34.75 6.5l-8.792 2.354c-17.375 4.583-34.958 8.333-52.708 11.187l-14.417 2.417c-22.708 3.875-48.458 8.25-69.792 8.25-105.568 0-191.63-52.615-201.68-119.479-1.164-2.635-1.862-5.516-1.862-8.583 0-0.521 0.26-0.956 0.297-1.466-0.029-0.919-0.422-1.776-0.422-2.701v-30.083zM824.792 107.542l-625.458 0.083c-15.875 0-28.792 12.917-28.792 28.792v12.917h683.042v-13c0-15.875-12.917-28.792-28.792-28.792zM331.542 256.062c17.708 0 41.583-4.062 62.625-7.646l14.792-2.479c16.375-2.646 32.625-6.104 48.667-10.333l8.292-2.229c14.375-3.937 29.208-8.021 46.083-8.021 16.125 0 36.708 5.375 56.625 10.583l17.458 4.437c42.292 10.125 80.083 15.688 106.375 15.688 75.625 0 135.232-26.31 154.193-64.062h-668.055c20.883 36.115 83.057 64.062 152.945 64.062zM511.875 360.667c84.042 0 148.958 55.625 161.625 139.083l19.958 165.938c3.617 22.242 1.76 44.292-4.698 65.198-0.451 1.641-1.010 3.151-1.818 4.604-0.964 2.805-2.289 5.458-3.424 8.198-3.159 7.57-6.849 14.906-11.323 22.018-3.388 5.409-6.794 10.779-10.844 15.786-0.719 0.883-1.154 1.888-1.893 2.758-1.294 1.521-3.081 2.63-4.432 4.107-6.849 7.57-14.375 14.544-22.594 20.938-1.63 1.253-3.117 2.583-4.792 3.786-10.497 7.625-21.779 14.289-33.883 19.76-0.237 0.107-0.484 0.177-0.721 0.281-11.208 5.013-23.029 8.797-35.214 11.703-2.578 0.628-5.089 1.245-7.69 1.771-12.003 2.365-24.216 3.974-36.716 4.065-0.518 0.005-1.026 0.172-1.542 0.172-0.703 0-1.393-0.224-2.096-0.232-12.086-0.141-23.911-1.659-35.536-3.935-3.008-0.599-5.909-1.307-8.888-2.044-11.312-2.758-22.284-6.305-32.766-10.888-0.987-0.43-2.013-0.721-2.992-1.169-11.555-5.276-22.339-11.672-32.435-18.917-2.367-1.685-4.484-3.536-6.763-5.32-7.479-5.911-14.367-12.299-20.703-19.195-1.583-1.711-3.648-3.010-5.154-4.779-0.799-0.94-1.273-2.026-2.047-2.979-3.888-4.805-7.128-9.984-10.411-15.156-4.016-6.333-7.448-12.802-10.419-19.495-1.703-3.839-3.557-7.607-4.919-11.583-0.323-0.661-0.594-1.305-0.849-2-0.104-0.323-0.294-0.609-0.396-0.932-0.062-0.195 0.010-0.398-0.044-0.594-6.615-20.987-8.604-43.036-4.997-65.052l20.125-167.479c12.583-82.792 77.417-138.417 161.292-138.417zM374.016 661.333l-1.349 11.208c-1.893 11.651-1.305 22.065 0.232 31.852l278.177-0.383c1.521-9.904 2.091-20.466 0.174-32.365l-1.242-10.313h-137.549c-0.333-0.042-0.667-0.021-0.917 0h-137.526zM484.667 618.667l-4.375-17.5c-3.708-14.813-16.958-25.167-32.208-25.167h-21.458c-15.25 0-28.5 10.333-32.208 25.146l-4.417 17.521h94.667zM634 618.667l-4.375-17.5c-3.708-14.813-16.958-25.167-32.208-25.167h-21.458c-15.25 0-28.5 10.333-32.208 25.146l-4.393 17.521h94.643zM511.875 403.333c-62.917 0-109.667 40.104-119.042 101.5l-4.826 40.13c11.503-6.914 24.432-11.63 38.617-11.63h21.458c26.578 0 50.305 13.831 63.932 35.344 13.622-21.505 37.357-35.344 63.943-35.344h21.458c14.172 0 27.089 4.714 38.583 11.617l-4.75-39.451c-9.458-62.062-56.292-102.167-119.375-102.167z" />
<glyph unicode="&#xe93e;" glyph-name="BAN028_EXP" data-tags="BAN028_EXP" d="M847.083 783.083c-8.333 8.333-21.833 8.333-30.167 0l-158.292-158.292-113.458 75.625c-8.5 5.646-19.75 4.521-26.917-2.667l-155.583-155.583-70.25 70.25c-8.333 8.333-21.833 8.333-30.167 0l-85.333-85.333c-8.333-8.333-8.333-21.833 0-30.167s21.833-8.333 30.167 0l70.25 70.25 70.25-70.25c4.167-4.167 9.625-6.25 15.083-6.25s10.917 2.083 15.083 6.25l158.292 158.292 113.458-75.625c8.5-5.688 19.75-4.5 26.917 2.667l170.667 170.667c8.333 8.333 8.333 21.833 0 30.167zM192 106.667h640c11.792 0 21.333 9.542 21.333 21.333s-9.542 21.333-21.333 21.333h-640c-11.792 0-21.333-9.542-21.333-21.333s9.542-21.333 21.333-21.333zM192 192c11.792 0 21.333 9.542 21.333 21.333v170.667c0 11.792-9.542 21.333-21.333 21.333s-21.333-9.542-21.333-21.333v-170.667c0-11.792 9.542-21.333 21.333-21.333zM426.667 213.333v170.667c0 11.792-9.542 21.333-21.333 21.333s-21.333-9.542-21.333-21.333v-170.667c0-11.792 9.542-21.333 21.333-21.333s21.333 9.542 21.333 21.333zM640 213.333v256c0 11.792-9.542 21.333-21.333 21.333s-21.333-9.542-21.333-21.333v-256c0-11.792 9.542-21.333 21.333-21.333s21.333 9.542 21.333 21.333zM853.333 597.333c0 11.792-9.542 21.333-21.333 21.333s-21.333-9.542-21.333-21.333v-384c0-11.792 9.542-21.333 21.333-21.333s21.333 9.542 21.333 21.333v384z" />
<glyph unicode="&#xe93f;" glyph-name="BAN029_EXP" data-tags="BAN029_EXP" d="M320 149.333c11.792 0 21.333 9.542 21.333 21.333v503.167l144.917-144.917c4.167-4.167 9.625-6.25 15.083-6.25s10.917 2.083 15.083 6.25c8.333 8.333 8.333 21.833 0 30.167l-181.307 181.307c-1.974 1.979-4.339 3.549-6.964 4.635-5.214 2.156-11.078 2.156-16.292 0-2.625-1.086-4.99-2.656-6.964-4.635l-181.307-181.307c-8.333-8.333-8.333-21.833 0-30.167s21.833-8.333 30.167 0l144.917 144.917v-503.167c0-11.792 9.542-21.333 21.333-21.333zM688.891 155.609c1.974-1.979 4.339-3.549 6.964-4.635 2.607-1.078 5.37-1.641 8.146-1.641s5.539 0.563 8.146 1.641c2.625 1.086 4.99 2.656 6.964 4.635l181.307 181.307c8.333 8.333 8.333 21.833 0 30.167s-21.833 8.333-30.167 0l-144.917-144.917v503.167c0 11.792-9.542 21.333-21.333 21.333s-21.333-9.542-21.333-21.333v-503.167l-144.917 144.917c-8.333 8.333-21.833 8.333-30.167 0s-8.333-21.833 0-30.167l181.307-181.307z" />
</font>
</defs>
</svg>
